<?xml version="1.0" encoding="UTF-8" standalone="no"?>
<svg
   xmlns:dc="http://purl.org/dc/elements/1.1/"
   xmlns:cc="http://creativecommons.org/ns#"
   xmlns:rdf="http://www.w3.org/1999/02/22-rdf-syntax-ns#"
   xmlns:svg="http://www.w3.org/2000/svg"
   xmlns="http://www.w3.org/2000/svg"
   xmlns:sodipodi="http://sodipodi.sourceforge.net/DTD/sodipodi-0.dtd"
   xmlns:inkscape="http://www.inkscape.org/namespaces/inkscape"
   width="1045.2749"
   height="372.53094"
   viewBox="0 0 276.56231 98.565482"
   version="1.1"
   id="svg1628"
   inkscape:version="1.0 (4035a4fb49, 2020-05-01)"
   sodipodi:docname="logo-paths.svg">
  <defs
     id="defs1622" />
  <sodipodi:namedview
     borderlayer="false"
     inkscape:showpageshadow="false"
     showborder="true"
     id="base"
     pagecolor="#312c3a"
     bordercolor="#666666"
     borderopacity="0.29019608"
     inkscape:pageopacity="1"
     inkscape:pageshadow="2"
     inkscape:zoom="1"
     inkscape:cx="525.83131"
     inkscape:cy="255.45886"
     inkscape:document-units="mm"
     inkscape:current-layer="g1620"
     inkscape:document-rotation="0"
     showgrid="false"
     fit-margin-top="1"
     lock-margins="true"
     fit-margin-left="1"
     fit-margin-right="1"
     fit-margin-bottom="1"
     inkscape:pagecheckerboard="false"
     inkscape:window-width="2560"
     inkscape:window-height="1376"
     inkscape:window-x="0"
     inkscape:window-y="0"
     inkscape:window-maximized="1"
     units="px" />
  <metadata
     id="metadata1625">
    <rdf:RDF>
      <cc:Work
         rdf:about="">
        <dc:format>image/svg+xml</dc:format>
        <dc:type
           rdf:resource="http://purl.org/dc/dcmitype/StillImage" />
        <dc:title></dc:title>
      </cc:Work>
    </rdf:RDF>
  </metadata>
  <g
     inkscape:label="Layer 1"
     inkscape:groupmode="layer"
     id="layer1"
     transform="translate(-267.89399,-317.94928)">
    <g
       id="g1620"
       transform="matrix(4,0,0,4,205.70239,-469.39192)"
       style="stroke-width:0.25">
      <g
         id="g7525">
        <path
           id="path7342"
           style="font-style:normal;font-variant:normal;font-weight:300;font-stretch:normal;font-size:11.9723px;line-height:0.85;font-family:Quicksand;-inkscape-font-specification:'Quicksand Light';text-align:end;letter-spacing:0px;word-spacing:0px;text-anchor:end;fill:#f8e45c;fill-opacity:1;stroke:none;stroke-width:0.0661455"
           d="m 23.611541,201.21147 q 0,0.95779 -0.299308,1.74796 -0.287335,0.79017 -0.826088,1.36484 -0.538754,0.57467 -1.269064,0.88595 -0.73031,0.31128 -1.604288,0.31128 -0.873978,0 -1.604288,-0.31128 -0.730311,-0.31128 -1.269064,-0.88595 -0.538754,-0.57467 -0.838061,-1.36484 -0.287335,-0.79017 -0.287335,-1.74796 0,-0.95778 0.287335,-1.74795 0.299307,-0.79017 0.838061,-1.36484 0.538753,-0.57467 1.269064,-0.88595 0.73031,-0.31128 1.604288,-0.31128 0.873978,0 1.604288,0.31128 0.73031,0.31128 1.269064,0.88595 0.538753,0.57467 0.826088,1.36484 0.299308,0.79017 0.299308,1.74795 z m -0.502837,0 q 0,-1.14934 -0.454947,-2.01134 -0.442975,-0.86201 -1.233147,-1.3409 -0.778199,-0.47889 -1.807817,-0.47889 -1.017646,0 -1.807817,0.47889 -0.790172,0.47889 -1.24512,1.3409 -0.442975,0.862 -0.442975,2.01134 0,1.14935 0.442975,2.01135 0.454948,0.86201 1.24512,1.3409 0.790171,0.47889 1.807817,0.47889 1.029618,0 1.807817,-0.47889 0.790172,-0.47889 1.233147,-1.3409 0.454947,-0.862 0.454947,-2.01135 z" />
        <path
           id="path7344"
           style="font-style:normal;font-variant:normal;font-weight:300;font-stretch:normal;font-size:11.9723px;line-height:0.85;font-family:Quicksand;-inkscape-font-specification:'Quicksand Light';text-align:end;letter-spacing:0px;word-spacing:0px;text-anchor:end;fill:#f8e45c;fill-opacity:1;stroke:none;stroke-width:0.0661455"
           d="m 27.981426,199.35577 q 0.802144,0 1.424704,0.39508 0.62256,0.39509 0.981728,1.08948 0.371142,0.68242 0.371142,1.56837 0,0.87398 -0.371142,1.56838 -0.359168,0.69439 -0.9937,1.10145 -0.62256,0.39508 -1.412732,0.39508 -0.395086,0 -0.766227,-0.10775 -0.359169,-0.11972 -0.670449,-0.32325 -0.311279,-0.2155 -0.57467,-0.52678 -0.251418,-0.31128 -0.442975,-0.70637 l 0.15564,-0.16761 v 3.91494 q 0,0.0958 -0.07183,0.16762 -0.05986,0.0718 -0.167612,0.0718 -0.09578,0 -0.167612,-0.0718 -0.07183,-0.0718 -0.07183,-0.16762 v -7.96158 q 0,-0.0958 0.05986,-0.16761 0.07183,-0.0718 0.179585,-0.0718 0.10775,0 0.167612,0.0718 0.07183,0.0718 0.07183,0.16761 v 1.53246 l -0.15564,-0.0838 q 0.167612,-0.44297 0.41903,-0.76623 0.251419,-0.32325 0.574671,-0.52678 0.323252,-0.20353 0.694393,-0.2993 0.371141,-0.0958 0.766227,-0.0958 z m -0.02394,0.45495 q -0.682421,0 -1.209203,0.33522 -0.514808,0.33522 -0.814116,0.92187 -0.299307,0.57467 -0.299307,1.34089 0,0.75426 0.299307,1.35287 0.299308,0.58665 0.814116,0.92187 0.526782,0.33523 1.209203,0.33523 0.670448,0 1.185257,-0.33523 0.526782,-0.33522 0.826089,-0.92187 0.31128,-0.59861 0.31128,-1.35287 0,-0.75425 -0.31128,-1.34089 -0.299307,-0.58665 -0.826089,-0.92187 -0.514809,-0.33522 -1.185257,-0.33522 z" />
        <path
           id="path7346"
           style="font-style:normal;font-variant:normal;font-weight:300;font-stretch:normal;font-size:11.9723px;line-height:0.85;font-family:Quicksand;-inkscape-font-specification:'Quicksand Light';text-align:end;letter-spacing:0px;word-spacing:0px;text-anchor:end;fill:#f8e45c;fill-opacity:1;stroke:none;stroke-width:0.0661455"
           d="m 34.97324,205.5215 q -0.897922,0 -1.592315,-0.38311 -0.682422,-0.38312 -1.077507,-1.07751 -0.395086,-0.70636 -0.395086,-1.65218 0,-1.00567 0.383113,-1.71203 0.395086,-0.70637 1.005673,-1.07751 0.62256,-0.38312 1.316953,-0.38312 0.502837,0 0.981729,0.16762 0.478892,0.15564 0.850033,0.50283 0.383114,0.33523 0.610588,0.85004 0.239446,0.50283 0.26339,1.2092 0,0.0958 -0.07183,0.17958 -0.07183,0.0718 -0.167612,0.0718 h -4.884698 l -0.07183,-0.45495 h 4.824837 l -0.119723,0.10775 v -0.2155 q -0.05986,-0.63453 -0.407058,-1.06554 -0.335225,-0.431 -0.814117,-0.6465 -0.478892,-0.22747 -0.993701,-0.22747 -0.359169,0 -0.754254,0.16761 -0.395086,0.15564 -0.730311,0.49086 -0.335224,0.32326 -0.550726,0.82609 -0.203529,0.50284 -0.203529,1.17329 0,0.73031 0.287336,1.34089 0.299307,0.61059 0.873977,0.98173 0.586643,0.37114 1.436676,0.37114 0.407059,0 0.766228,-0.13169 0.359169,-0.14367 0.646504,-0.37114 0.287335,-0.22748 0.466919,-0.49087 0.09578,-0.10775 0.20353,-0.10775 0.08381,0 0.143667,0.0718 0.05986,0.0599 0.05986,0.14366 0,0.0838 -0.04789,0.14367 -0.371141,0.47889 -0.957784,0.83806 -0.57467,0.35917 -1.281036,0.35917 z" />
        <path
           id="path7348"
           style="font-style:normal;font-variant:normal;font-weight:300;font-stretch:normal;font-size:11.9723px;line-height:0.85;font-family:Quicksand;-inkscape-font-specification:'Quicksand Light';text-align:end;letter-spacing:0px;word-spacing:0px;text-anchor:end;fill:#f8e45c;fill-opacity:1;stroke:none;stroke-width:0.0661455"
           d="m 41.605877,199.23604 q 0.754255,0 1.221174,0.29931 0.478892,0.29931 0.694394,0.81412 0.227473,0.51481 0.227473,1.14934 v 3.66352 q 0,0.0958 -0.07183,0.16762 -0.07183,0.0718 -0.167612,0.0718 -0.10775,0 -0.179584,-0.0718 -0.05986,-0.0718 -0.05986,-0.16762 v -3.61563 q 0,-0.51481 -0.179584,-0.93384 -0.167612,-0.41903 -0.550726,-0.67045 -0.371141,-0.25142 -0.981729,-0.25142 -0.526781,0 -1.029617,0.25142 -0.502837,0.25142 -0.838061,0.67045 -0.323252,0.41903 -0.323252,0.93384 v 3.61563 q 0,0.0958 -0.07183,0.16762 -0.07183,0.0718 -0.167612,0.0718 -0.107751,0 -0.179585,-0.0718 -0.05986,-0.0718 -0.05986,-0.16762 v -5.49528 q 0,-0.0958 0.07183,-0.16761 0.07183,-0.0718 0.167613,-0.0718 0.10775,0 0.167612,0.0718 0.07183,0.0718 0.07183,0.16761 v 1.17328 l -0.299308,0.57467 q 0,-0.431 0.227474,-0.82609 0.227474,-0.39508 0.598615,-0.69439 0.371141,-0.31128 0.814116,-0.47889 0.454948,-0.17959 0.897923,-0.17959 z" />
        <path
           id="path7350"
           style="font-style:normal;font-variant:normal;font-weight:300;font-stretch:normal;font-size:11.9723px;line-height:0.85;font-family:Quicksand;-inkscape-font-specification:'Quicksand Light';text-align:end;letter-spacing:0px;word-spacing:0px;text-anchor:end;fill:#f8e45c;fill-opacity:1;stroke:none;stroke-width:0.0661455"
           d="m 51.363265,205.5215 q -0.933839,0.012 -1.604288,-0.31128 -0.670449,-0.32325 -1.293008,-0.94581 -0.02394,-0.0239 -0.04789,-0.0599 -0.02395,-0.0479 -0.02395,-0.11972 0,-0.0958 0.08381,-0.17959 0.08381,-0.0958 0.179585,-0.0958 0.10775,0 0.203529,0.10775 0.478892,0.55073 1.113424,0.83806 0.646504,0.28734 1.340897,0.28734 0.610587,0 1.089479,-0.19156 0.478892,-0.20353 0.754255,-0.56269 0.275363,-0.37115 0.275363,-0.86201 -0.01197,-0.61059 -0.335224,-0.98173 -0.323252,-0.37114 -0.838061,-0.61059 -0.502837,-0.23944 -1.065535,-0.44297 -0.442975,-0.16761 -0.873978,-0.3472 -0.431002,-0.17958 -0.778199,-0.431 -0.347197,-0.26339 -0.550726,-0.6465 -0.203529,-0.39509 -0.203529,-0.96976 0,-0.58664 0.31128,-1.05356 0.323252,-0.4789 0.909894,-0.75426 0.598615,-0.28733 1.412732,-0.28733 0.682421,0 1.328925,0.25141 0.646504,0.23945 1.017646,0.73032 0.119723,0.16761 0.119723,0.25141 0,0.0838 -0.09578,0.16762 -0.08381,0.0838 -0.191557,0.0838 -0.09578,0 -0.15564,-0.0718 -0.215501,-0.28734 -0.526781,-0.49087 -0.299307,-0.2155 -0.682421,-0.32325 -0.383113,-0.11972 -0.814116,-0.11972 -0.586643,0 -1.065535,0.19156 -0.478892,0.19155 -0.766227,0.55072 -0.287335,0.3472 -0.287335,0.86201 0,0.55072 0.31128,0.90989 0.323252,0.3472 0.814116,0.58664 0.490864,0.22748 1.005673,0.41903 0.454948,0.15564 0.897923,0.3472 0.454947,0.17959 0.814116,0.45495 0.371141,0.27536 0.586643,0.69439 0.215501,0.41903 0.215501,1.05356 0,0.55073 -0.323252,1.01765 -0.31128,0.46692 -0.88595,0.75425 -0.574671,0.28734 -1.376815,0.29931 z" />
        <path
           id="path7352"
           style="font-style:normal;font-variant:normal;font-weight:300;font-stretch:normal;font-size:11.9723px;line-height:0.85;font-family:Quicksand;-inkscape-font-specification:'Quicksand Light';text-align:end;letter-spacing:0px;word-spacing:0px;text-anchor:end;fill:#f8e45c;fill-opacity:1;stroke:none;stroke-width:0.0661455"
           d="m 61.036874,202.38476 q 0,0.88595 -0.383114,1.60429 -0.383114,0.70636 -1.053562,1.12539 -0.658477,0.40706 -1.50851,0.40706 -0.838061,0 -1.50851,-0.40706 -0.670449,-0.41903 -1.065535,-1.12539 -0.383113,-0.71834 -0.383113,-1.60429 0,-0.89792 0.383113,-1.60429 0.395086,-0.71834 1.065535,-1.12539 0.670449,-0.41904 1.50851,-0.41904 0.850033,0 1.50851,0.41904 0.670448,0.40705 1.053562,1.12539 0.383114,0.70637 0.383114,1.60429 z m -0.478892,0 q 0,-0.7782 -0.323252,-1.37681 -0.31128,-0.61059 -0.873978,-0.95779 -0.550726,-0.35917 -1.269064,-0.35917 -0.706366,0 -1.269064,0.35917 -0.562698,0.3472 -0.88595,0.95779 -0.323252,0.59861 -0.323252,1.37681 0,0.76623 0.323252,1.37681 0.323252,0.59862 0.88595,0.95779 0.562698,0.34719 1.269064,0.34719 0.718338,0 1.269064,-0.34719 0.562698,-0.35917 0.873978,-0.95779 0.323252,-0.61058 0.323252,-1.37681 z" />
        <path
           id="path7354"
           style="font-style:normal;font-variant:normal;font-weight:300;font-stretch:normal;font-size:11.9723px;line-height:0.85;font-family:Quicksand;-inkscape-font-specification:'Quicksand Light';text-align:end;letter-spacing:0px;word-spacing:0px;text-anchor:end;fill:#f8e45c;fill-opacity:1;stroke:none;stroke-width:0.0661455"
           d="m 67.118787,199.4276 q 0.107751,0 0.167613,0.0718 0.07183,0.0718 0.07183,0.16761 v 3.48394 q 0,1.16131 -0.658476,1.74795 -0.646504,0.57467 -1.724011,0.57467 -1.065535,0 -1.724011,-0.57467 -0.646505,-0.58664 -0.646505,-1.74795 v -3.48394 q 0,-0.0958 0.07183,-0.16761 0.07183,-0.0718 0.167612,-0.0718 0.107751,0 0.167613,0.0718 0.07183,0.0718 0.07183,0.16761 v 3.48394 q 0,0.90989 0.502837,1.38878 0.514809,0.4789 1.388787,0.4789 0.88595,0 1.388787,-0.4789 0.514808,-0.47889 0.514808,-1.38878 v -3.48394 q 0,-0.0958 0.05986,-0.16761 0.07183,-0.0718 0.179584,-0.0718 z" />
        <path
           id="path7356"
           style="font-style:normal;font-variant:normal;font-weight:300;font-stretch:normal;font-size:11.9723px;line-height:0.85;font-family:Quicksand;-inkscape-font-specification:'Quicksand Light';text-align:end;letter-spacing:0px;word-spacing:0px;text-anchor:end;fill:#f8e45c;fill-opacity:1;stroke:none;stroke-width:0.0661455"
           d="m 69.585079,205.40178 q -0.107751,0 -0.179585,-0.0718 -0.05986,-0.0718 -0.05986,-0.16762 v -5.49528 q 0,-0.0958 0.07183,-0.16761 0.07183,-0.0718 0.167613,-0.0718 0.10775,0 0.167612,0.0718 0.07183,0.0718 0.07183,0.16761 v 2.02332 l -0.203529,0.31128 q 0,-0.46692 0.155639,-0.94582 0.167613,-0.47889 0.478892,-0.88595 0.31128,-0.41903 0.754255,-0.67044 0.454948,-0.2634 1.04159,-0.2634 0.167613,0 0.359169,0.0479 0.191557,0.0479 0.191557,0.22748 0,0.10775 -0.05986,0.17958 -0.05986,0.0718 -0.15564,0.0718 -0.07183,0 -0.179585,-0.0479 -0.09578,-0.0599 -0.287335,-0.0599 -0.383114,0 -0.754255,0.22747 -0.371141,0.22747 -0.682421,0.61059 -0.299307,0.37114 -0.478892,0.81411 -0.179584,0.44298 -0.179584,0.86201 v 2.99307 q 0,0.0958 -0.07183,0.16762 -0.07183,0.0718 -0.167612,0.0718 z" />
        <path
           id="path7358"
           style="font-style:normal;font-variant:normal;font-weight:300;font-stretch:normal;font-size:11.9723px;line-height:0.85;font-family:Quicksand;-inkscape-font-specification:'Quicksand Light';text-align:end;letter-spacing:0px;word-spacing:0px;text-anchor:end;fill:#f8e45c;fill-opacity:1;stroke:none;stroke-width:0.0661455"
           d="m 76.086001,199.23604 q 0.538754,0 1.005674,0.11973 0.478892,0.11972 0.766227,0.32325 0.299307,0.19156 0.299307,0.40706 0,0.0838 -0.07183,0.16761 -0.05986,0.0718 -0.155639,0.0718 -0.131696,0 -0.215502,-0.0718 -0.07183,-0.0718 -0.15564,-0.16761 -0.08381,-0.10775 -0.26339,-0.19156 -0.167612,-0.0838 -0.478892,-0.14367 -0.299308,-0.0599 -0.742283,-0.0599 -0.694393,0 -1.269064,0.35917 -0.57467,0.35917 -0.921867,0.96976 -0.335224,0.59861 -0.335224,1.35287 0,0.76622 0.31128,1.37681 0.323252,0.61059 0.88595,0.96976 0.57467,0.34719 1.328925,0.34719 0.538754,0 0.814117,-0.0958 0.287335,-0.10775 0.490864,-0.22748 0.251418,-0.14366 0.347196,-0.27536 0.09578,-0.1317 0.227474,-0.1317 0.09578,0 0.143668,0.0599 0.05986,0.0599 0.05986,0.15564 0,0.14366 -0.26339,0.38311 -0.263391,0.22747 -0.742283,0.40706 -0.46692,0.17958 -1.113424,0.17958 -0.873978,0 -1.544426,-0.40706 -0.670449,-0.41903 -1.053563,-1.12539 -0.371141,-0.71834 -0.371141,-1.61626 0,-0.83806 0.371141,-1.54443 0.383114,-0.71834 1.053563,-1.14934 0.682421,-0.44298 1.592315,-0.44298 z" />
        <path
           id="path7360"
           style="font-style:normal;font-variant:normal;font-weight:300;font-stretch:normal;font-size:11.9723px;line-height:0.85;font-family:Quicksand;-inkscape-font-specification:'Quicksand Light';text-align:end;letter-spacing:0px;word-spacing:0px;text-anchor:end;fill:#f8e45c;fill-opacity:1;stroke:none;stroke-width:0.0661455"
           d="m 82.27566,205.5215 q -0.897922,0 -1.592316,-0.38311 -0.682421,-0.38312 -1.077507,-1.07751 -0.395086,-0.70636 -0.395086,-1.65218 0,-1.00567 0.383114,-1.71203 0.395086,-0.70637 1.005673,-1.07751 0.62256,-0.38312 1.316953,-0.38312 0.502837,0 0.981729,0.16762 0.478892,0.15564 0.850033,0.50283 0.383113,0.33523 0.610587,0.85004 0.239446,0.50283 0.263391,1.2092 0,0.0958 -0.07183,0.17958 -0.07183,0.0718 -0.167612,0.0718 h -4.884698 l -0.07183,-0.45495 h 4.824836 l -0.119723,0.10775 v -0.2155 q -0.05986,-0.63453 -0.407058,-1.06554 -0.335224,-0.431 -0.814116,-0.6465 -0.478892,-0.22747 -0.993701,-0.22747 -0.359169,0 -0.754255,0.16761 -0.395086,0.15564 -0.73031,0.49086 -0.335224,0.32326 -0.550726,0.82609 -0.203529,0.50284 -0.203529,1.17329 0,0.73031 0.287335,1.34089 0.299308,0.61059 0.873978,0.98173 0.586643,0.37114 1.436676,0.37114 0.407058,0 0.766227,-0.13169 0.359169,-0.14367 0.646504,-0.37114 0.287336,-0.22748 0.46692,-0.49087 0.09578,-0.10775 0.203529,-0.10775 0.08381,0 0.143668,0.0718 0.05986,0.0599 0.05986,0.14366 0,0.0838 -0.04789,0.14367 -0.371141,0.47889 -0.957784,0.83806 -0.57467,0.35917 -1.281036,0.35917 z" />
      </g>
      <g
         id="g7480"
         style="font-style:normal;font-weight:normal;font-size:11.9723px;line-height:0.85;font-family:sans-serif;text-align:end;letter-spacing:0px;word-spacing:0px;text-anchor:end;fill:#986a44;fill-opacity:0.75686276;stroke:none;stroke-width:0.0661455">
        <path
           id="path7362"
           style="font-style:normal;font-variant:normal;font-weight:300;font-stretch:normal;font-family:Quicksand;-inkscape-font-specification:'Quicksand Light';text-align:end;text-anchor:end;fill:#986a44;fill-opacity:0.75686276;stroke-width:0.0661455"
           d="m 27.023636,215.82049 q 0,0.0958 -0.07183,0.16761 -0.07183,0.0718 -0.167612,0.0718 -0.107751,0 -0.179585,-0.0718 -0.05986,-0.0718 -0.05986,-0.16761 v -5.68685 q 0,-0.0958 0.07183,-0.16761 0.07183,-0.0718 0.167612,-0.0718 0.107751,0 0.167612,0.0718 0.07183,0.0718 0.07183,0.16761 z m -0.239446,-6.74041 q -0.191557,0 -0.31128,-0.10775 -0.107751,-0.10775 -0.107751,-0.27536 v -0.0958 q 0,-0.16761 0.119723,-0.27536 0.119723,-0.10775 0.31128,-0.10775 0.167612,0 0.275363,0.10775 0.119723,0.10775 0.119723,0.27536 v 0.0958 q 0,0.16761 -0.119723,0.27536 -0.107751,0.10775 -0.287335,0.10775 z" />
        <path
           id="path7364"
           style="font-style:normal;font-variant:normal;font-weight:300;font-stretch:normal;font-family:Quicksand;-inkscape-font-specification:'Quicksand Light';text-align:end;text-anchor:end;fill:#986a44;fill-opacity:0.75686276;stroke-width:0.0661455"
           d="m 31.728743,209.8942 q 0.754254,0 1.221174,0.29931 0.478892,0.2993 0.694394,0.81411 0.227473,0.51481 0.227473,1.14934 v 3.66353 q 0,0.0958 -0.07183,0.16761 -0.07183,0.0718 -0.167612,0.0718 -0.10775,0 -0.179584,-0.0718 -0.05986,-0.0718 -0.05986,-0.16761 v -3.61564 q 0,-0.51481 -0.179584,-0.93384 -0.167612,-0.41903 -0.550726,-0.67045 -0.371141,-0.25141 -0.981729,-0.25141 -0.526781,0 -1.029617,0.25141 -0.502837,0.25142 -0.838061,0.67045 -0.323252,0.41903 -0.323252,0.93384 v 3.61564 q 0,0.0958 -0.07183,0.16761 -0.07183,0.0718 -0.167612,0.0718 -0.107751,0 -0.179585,-0.0718 -0.05986,-0.0718 -0.05986,-0.16761 v -5.49529 q 0,-0.0958 0.07183,-0.16761 0.07183,-0.0718 0.167613,-0.0718 0.10775,0 0.167612,0.0718 0.07183,0.0718 0.07183,0.16761 v 1.17329 l -0.299308,0.57467 q 0,-0.43101 0.227474,-0.82609 0.227473,-0.39509 0.598615,-0.6944 0.371141,-0.31128 0.814116,-0.47889 0.454948,-0.17958 0.897923,-0.17958 z" />
        <path
           id="path7366"
           style="font-style:normal;font-variant:normal;font-weight:300;font-stretch:normal;font-family:Quicksand;-inkscape-font-specification:'Quicksand Light';text-align:end;text-anchor:end;fill:#986a44;fill-opacity:0.75686276;stroke-width:0.0661455"
           d="m 42.755195,207.67932 q 0.957784,0 1.532454,0.55073 0.574671,0.55072 0.574671,1.48456 0,0.49087 -0.203529,0.95779 -0.191557,0.45494 -0.574671,0.75425 -0.383113,0.29931 -0.945811,0.3472 l -0.08381,-0.14367 q 0.466919,0 0.873977,0.14367 0.407059,0.13169 0.706366,0.40706 0.299308,0.27536 0.46692,0.68242 0.179584,0.39508 0.179584,0.93384 0,0.57467 -0.191557,1.00567 -0.191556,0.41903 -0.526781,0.70637 -0.335224,0.27536 -0.778199,0.41903 -0.442975,0.13169 -0.945812,0.13169 h -3.304355 q -0.09578,0 -0.167612,-0.0718 -0.07183,-0.0718 -0.07183,-0.16761 v -7.90172 q 0,-0.0958 0.07183,-0.16761 0.07183,-0.0718 0.167612,-0.0718 z m -0.05986,0.47889 h -3.028992 l 0.131695,-0.22747 v 3.79522 l -0.119723,-0.20353 h 3.01702 q 0.706365,-0.012 1.185257,-0.46692 0.478892,-0.45495 0.478892,-1.35287 0,-0.69439 -0.431003,-1.11342 -0.431002,-0.43101 -1.233146,-0.43101 z m 0.08381,3.85508 h -3.028992 l 0.04789,-0.0718 v 3.73536 l -0.05986,-0.0958 h 3.040964 q 0.850033,0 1.424703,-0.41903 0.574671,-0.431 0.574671,-1.36484 0,-0.62256 -0.263391,-1.01765 -0.26339,-0.39508 -0.718338,-0.57467 -0.454947,-0.19156 -1.017645,-0.19156 z" />
        <path
           id="path7368"
           style="font-style:normal;font-variant:normal;font-weight:300;font-stretch:normal;font-family:Quicksand;-inkscape-font-specification:'Quicksand Light';text-align:end;text-anchor:end;fill:#986a44;fill-opacity:0.75686276;stroke-width:0.0661455"
           d="m 51.387218,210.08575 q 0.107751,0 0.167613,0.0718 0.07183,0.0718 0.07183,0.16761 v 3.48394 q 0,1.16131 -0.658476,1.74796 -0.646504,0.57467 -1.724011,0.57467 -1.065535,0 -1.724011,-0.57467 -0.646505,-0.58665 -0.646505,-1.74796 v -3.48394 q 0,-0.0958 0.07183,-0.16761 0.07183,-0.0718 0.167612,-0.0718 0.107751,0 0.167613,0.0718 0.07183,0.0718 0.07183,0.16761 v 3.48394 q 0,0.90989 0.502837,1.38879 0.514809,0.47889 1.388787,0.47889 0.88595,0 1.388787,-0.47889 0.514808,-0.4789 0.514808,-1.38879 v -3.48394 q 0,-0.0958 0.05986,-0.16761 0.07183,-0.0718 0.179584,-0.0718 z" />
        <path
           id="path7370"
           style="font-style:normal;font-variant:normal;font-weight:300;font-stretch:normal;font-family:Quicksand;-inkscape-font-specification:'Quicksand Light';text-align:end;text-anchor:end;fill:#986a44;fill-opacity:0.75686276;stroke-width:0.0661455"
           d="m 53.278837,215.10215 q -0.08381,-0.14367 -0.08381,-0.22748 0.01197,-0.0958 0.09578,-0.15564 0.05986,-0.0599 0.15564,-0.0479 0.10775,0 0.179584,0.0838 0.31128,0.44298 0.790172,0.71834 0.490864,0.27536 1.149341,0.27536 0.395085,0 0.754254,-0.13169 0.371142,-0.1317 0.598615,-0.39509 0.239446,-0.26339 0.239446,-0.6465 0,-0.40706 -0.227473,-0.64651 -0.227474,-0.25142 -0.586643,-0.39508 -0.359169,-0.14367 -0.754255,-0.23945 -0.41903,-0.10775 -0.802144,-0.23945 -0.371141,-0.14366 -0.658476,-0.34719 -0.287336,-0.2155 -0.454948,-0.50284 -0.167612,-0.28733 -0.167612,-0.68242 0,-0.46692 0.251418,-0.83806 0.251419,-0.37114 0.706366,-0.57467 0.454947,-0.2155 1.053562,-0.2155 0.287336,0 0.610588,0.0718 0.323252,0.0718 0.646504,0.25142 0.323252,0.16761 0.598615,0.47889 0.09578,0.0718 0.08381,0.17959 0,0.0958 -0.08381,0.17958 -0.07183,0.0479 -0.15564,0.0479 -0.08381,0 -0.143668,-0.0718 -0.311279,-0.3472 -0.73031,-0.51481 -0.407058,-0.16761 -0.873978,-0.16761 -0.395086,0 -0.742282,0.13169 -0.335225,0.1317 -0.550726,0.39509 -0.215502,0.25141 -0.215502,0.6465 0.02394,0.37114 0.251419,0.61059 0.239446,0.23944 0.622559,0.39508 0.395086,0.15564 0.88595,0.28734 0.395086,0.0958 0.730311,0.22747 0.347196,0.11973 0.598615,0.31128 0.26339,0.19156 0.407058,0.47889 0.15564,0.28734 0.15564,0.71834 0,0.50284 -0.275363,0.87398 -0.263391,0.35917 -0.742283,0.5627 -0.466919,0.19156 -1.077507,0.19156 -0.622559,0 -1.19723,-0.25142 -0.57467,-0.25142 -1.04159,-0.82609 z" />
        <path
           id="path7372"
           style="font-style:normal;font-variant:normal;font-weight:300;font-stretch:normal;font-family:Quicksand;-inkscape-font-specification:'Quicksand Light';text-align:end;text-anchor:end;fill:#986a44;fill-opacity:0.75686276;stroke-width:0.0661455"
           d="m 59.660054,215.82049 q 0,0.0958 -0.07183,0.16761 -0.07183,0.0718 -0.167612,0.0718 -0.10775,0 -0.179584,-0.0718 -0.05986,-0.0718 -0.05986,-0.16761 v -5.68685 q 0,-0.0958 0.07183,-0.16761 0.07183,-0.0718 0.167612,-0.0718 0.107751,0 0.167612,0.0718 0.07183,0.0718 0.07183,0.16761 z m -0.239446,-6.74041 q -0.191557,0 -0.31128,-0.10775 -0.10775,-0.10775 -0.10775,-0.27536 v -0.0958 q 0,-0.16761 0.119723,-0.27536 0.119723,-0.10775 0.31128,-0.10775 0.167612,0 0.275362,0.10775 0.119723,0.10775 0.119723,0.27536 v 0.0958 q 0,0.16761 -0.119723,0.27536 -0.10775,0.10775 -0.287335,0.10775 z" />
        <path
           id="path7374"
           style="font-style:normal;font-variant:normal;font-weight:300;font-stretch:normal;font-family:Quicksand;-inkscape-font-specification:'Quicksand Light';text-align:end;text-anchor:end;fill:#986a44;fill-opacity:0.75686276;stroke-width:0.0661455"
           d="m 64.36516,209.8942 q 0.754255,0 1.221175,0.29931 0.478892,0.2993 0.694393,0.81411 0.227474,0.51481 0.227474,1.14934 v 3.66353 q 0,0.0958 -0.07183,0.16761 -0.07183,0.0718 -0.167612,0.0718 -0.107751,0 -0.179585,-0.0718 -0.05986,-0.0718 -0.05986,-0.16761 v -3.61564 q 0,-0.51481 -0.179585,-0.93384 -0.167612,-0.41903 -0.550726,-0.67045 -0.371141,-0.25141 -0.981728,-0.25141 -0.526781,0 -1.029618,0.25141 -0.502837,0.25142 -0.838061,0.67045 -0.323252,0.41903 -0.323252,0.93384 v 3.61564 q 0,0.0958 -0.07183,0.16761 -0.07183,0.0718 -0.167612,0.0718 -0.107751,0 -0.179585,-0.0718 -0.05986,-0.0718 -0.05986,-0.16761 v -5.49529 q 0,-0.0958 0.07183,-0.16761 0.07183,-0.0718 0.167612,-0.0718 0.107751,0 0.167612,0.0718 0.07183,0.0718 0.07183,0.16761 v 1.17329 l -0.299308,0.57467 q 0,-0.43101 0.227474,-0.82609 0.227474,-0.39509 0.598615,-0.6944 0.371141,-0.31128 0.814117,-0.47889 0.454947,-0.17958 0.897922,-0.17958 z" />
        <path
           id="path7376"
           style="font-style:normal;font-variant:normal;font-weight:300;font-stretch:normal;font-family:Quicksand;-inkscape-font-specification:'Quicksand Light';text-align:end;text-anchor:end;fill:#986a44;fill-opacity:0.75686276;stroke-width:0.0661455"
           d="m 71.141463,216.17966 q -0.897922,0 -1.592316,-0.38312 -0.682421,-0.38311 -1.077507,-1.07751 -0.395086,-0.70636 -0.395086,-1.65217 0,-1.00568 0.383114,-1.71204 0.395086,-0.70637 1.005673,-1.07751 0.62256,-0.38311 1.316953,-0.38311 0.502837,0 0.981729,0.16761 0.478892,0.15564 0.850033,0.50284 0.383114,0.33522 0.610587,0.85003 0.239446,0.50284 0.263391,1.2092 0,0.0958 -0.07183,0.17959 -0.07183,0.0718 -0.167612,0.0718 H 68.36389 l -0.07183,-0.45495 h 4.824837 l -0.119723,0.10775 v -0.2155 q -0.05986,-0.63453 -0.407059,-1.06553 -0.335224,-0.43101 -0.814116,-0.64651 -0.478892,-0.22747 -0.993701,-0.22747 -0.359169,0 -0.754255,0.16761 -0.395086,0.15564 -0.73031,0.49087 -0.335224,0.32325 -0.550726,0.82608 -0.203529,0.50284 -0.203529,1.17329 0,0.73031 0.287335,1.3409 0.299308,0.61059 0.873978,0.98173 0.586643,0.37114 1.436676,0.37114 0.407058,0 0.766227,-0.1317 0.359169,-0.14367 0.646504,-0.37114 0.287336,-0.22747 0.46692,-0.49086 0.09578,-0.10775 0.203529,-0.10775 0.08381,0 0.143668,0.0718 0.05986,0.0599 0.05986,0.14367 0,0.0838 -0.04789,0.14367 -0.371141,0.47889 -0.957784,0.83806 -0.57467,0.35917 -1.281036,0.35917 z" />
        <path
           id="path7378"
           style="font-style:normal;font-variant:normal;font-weight:300;font-stretch:normal;font-family:Quicksand;-inkscape-font-specification:'Quicksand Light';text-align:end;text-anchor:end;fill:#986a44;fill-opacity:0.75686276;stroke-width:0.0661455"
           d="m 74.721163,215.10215 q -0.08381,-0.14367 -0.08381,-0.22748 0.01197,-0.0958 0.09578,-0.15564 0.05986,-0.0599 0.15564,-0.0479 0.107751,0 0.179585,0.0838 0.311279,0.44298 0.790171,0.71834 0.490865,0.27536 1.149341,0.27536 0.395086,0 0.754255,-0.13169 0.371141,-0.1317 0.598615,-0.39509 0.239446,-0.26339 0.239446,-0.6465 0,-0.40706 -0.227474,-0.64651 -0.227473,-0.25142 -0.586642,-0.39508 -0.359169,-0.14367 -0.754255,-0.23945 -0.419031,-0.10775 -0.802144,-0.23945 -0.371142,-0.14366 -0.658477,-0.34719 -0.287335,-0.2155 -0.454947,-0.50284 -0.167612,-0.28733 -0.167612,-0.68242 0,-0.46692 0.251418,-0.83806 0.251418,-0.37114 0.706366,-0.57467 0.454947,-0.2155 1.053562,-0.2155 0.287335,0 0.610587,0.0718 0.323252,0.0718 0.646504,0.25142 0.323253,0.16761 0.598615,0.47889 0.09578,0.0718 0.08381,0.17959 0,0.0958 -0.08381,0.17958 -0.07183,0.0479 -0.155639,0.0479 -0.08381,0 -0.143668,-0.0718 -0.31128,-0.3472 -0.73031,-0.51481 -0.407059,-0.16761 -0.873978,-0.16761 -0.395086,0 -0.742283,0.13169 -0.335224,0.1317 -0.550726,0.39509 -0.215501,0.25141 -0.215501,0.6465 0.02395,0.37114 0.251418,0.61059 0.239446,0.23944 0.62256,0.39508 0.395086,0.15564 0.88595,0.28734 0.395086,0.0958 0.73031,0.22747 0.347197,0.11973 0.598615,0.31128 0.263391,0.19156 0.407059,0.47889 0.155639,0.28734 0.155639,0.71834 0,0.50284 -0.275362,0.87398 -0.263391,0.35917 -0.742283,0.5627 -0.46692,0.19156 -1.077507,0.19156 -0.62256,0 -1.19723,-0.25142 -0.57467,-0.25142 -1.04159,-0.82609 z" />
        <path
           id="path7380"
           style="font-style:normal;font-variant:normal;font-weight:300;font-stretch:normal;font-family:Quicksand;-inkscape-font-specification:'Quicksand Light';text-align:end;text-anchor:end;fill:#986a44;fill-opacity:0.75686276;stroke-width:0.0661455"
           d="m 80.28826,215.10215 q -0.08381,-0.14367 -0.08381,-0.22748 0.01197,-0.0958 0.09578,-0.15564 0.05986,-0.0599 0.15564,-0.0479 0.107751,0 0.179584,0.0838 0.31128,0.44298 0.790172,0.71834 0.490864,0.27536 1.149341,0.27536 0.395086,0 0.754255,-0.13169 0.371141,-0.1317 0.598615,-0.39509 0.239446,-0.26339 0.239446,-0.6465 0,-0.40706 -0.227474,-0.64651 -0.227474,-0.25142 -0.586643,-0.39508 -0.359169,-0.14367 -0.754255,-0.23945 -0.41903,-0.10775 -0.802144,-0.23945 -0.371141,-0.14366 -0.658476,-0.34719 -0.287335,-0.2155 -0.454947,-0.50284 -0.167613,-0.28733 -0.167613,-0.68242 0,-0.46692 0.251419,-0.83806 0.251418,-0.37114 0.706365,-0.57467 0.454948,-0.2155 1.053563,-0.2155 0.287335,0 0.610587,0.0718 0.323252,0.0718 0.646504,0.25142 0.323252,0.16761 0.598615,0.47889 0.09578,0.0718 0.08381,0.17959 0,0.0958 -0.08381,0.17958 -0.07183,0.0479 -0.15564,0.0479 -0.08381,0 -0.143667,-0.0718 -0.31128,-0.3472 -0.730311,-0.51481 -0.407058,-0.16761 -0.873977,-0.16761 -0.395086,0 -0.742283,0.13169 -0.335224,0.1317 -0.550726,0.39509 -0.215501,0.25141 -0.215501,0.6465 0.02394,0.37114 0.251418,0.61059 0.239446,0.23944 0.62256,0.39508 0.395086,0.15564 0.88595,0.28734 0.395086,0.0958 0.73031,0.22747 0.347197,0.11973 0.598615,0.31128 0.263391,0.19156 0.407058,0.47889 0.15564,0.28734 0.15564,0.71834 0,0.50284 -0.275363,0.87398 -0.26339,0.35917 -0.742282,0.5627 -0.46692,0.19156 -1.077507,0.19156 -0.62256,0 -1.19723,-0.25142 -0.574671,-0.25142 -1.04159,-0.82609 z" />
      </g>
      <g
         style="font-style:normal;font-weight:normal;font-size:2.63803px;line-height:0.85;font-family:sans-serif;text-align:start;letter-spacing:0px;word-spacing:0px;text-anchor:start;fill:#ffffff;fill-opacity:1;stroke:none;stroke-width:0.0661456"
         id="text1611"
         aria-label="Coming soon, starting in September 2020">
        <path
           id="path7383"
           style="font-style:normal;font-variant:normal;font-weight:500;font-stretch:normal;font-size:2.63803px;font-family:Quicksand;-inkscape-font-specification:'Quicksand Medium';text-align:start;text-anchor:start;fill:#ffffff;fill-opacity:1;stroke-width:0.0661456"
           d="m 35.227943,219.15765 q 0.04485,0.0237 0.05012,0.0712 0.0079,0.0475 -0.02374,0.0871 -0.02374,0.0343 -0.06067,0.0369 -0.03693,0.003 -0.07386,-0.0158 -0.08705,-0.0528 -0.1873,-0.0818 -0.100245,-0.0316 -0.211043,-0.0316 -0.155644,0 -0.284907,0.0554 -0.129263,0.0528 -0.224233,0.15036 -0.09497,0.0976 -0.147729,0.23215 -0.05276,0.13454 -0.05276,0.2981 0,0.17411 0.0554,0.31129 0.0554,0.13717 0.150368,0.23478 0.09761,0.095 0.224232,0.14509 0.129264,0.0501 0.279631,0.0501 0.10816,0 0.208405,-0.029 0.100245,-0.029 0.189938,-0.0844 0.03693,-0.0185 0.07386,-0.0132 0.03693,0.005 0.06331,0.0369 0.03166,0.0422 0.02374,0.0897 -0.0079,0.0448 -0.05012,0.066 -0.06595,0.0396 -0.150368,0.0739 -0.08442,0.0317 -0.176748,0.0501 -0.08969,0.0185 -0.182024,0.0185 -0.189938,0 -0.358772,-0.066 -0.168834,-0.0659 -0.298097,-0.18994 -0.129264,-0.12399 -0.205767,-0.2981 -0.07386,-0.17674 -0.07386,-0.3957 0,-0.20577 0.07123,-0.37724 0.07123,-0.17147 0.197853,-0.2981 0.129263,-0.12662 0.298097,-0.19785 0.171472,-0.0712 0.369324,-0.0712 0.137178,0 0.266441,0.0369 0.131902,0.0369 0.240061,0.10552 z" />
        <path
           id="path7385"
           style="font-style:normal;font-variant:normal;font-weight:500;font-stretch:normal;font-size:2.63803px;font-family:Quicksand;-inkscape-font-specification:'Quicksand Medium';text-align:start;text-anchor:start;fill:#ffffff;fill-opacity:1;stroke-width:0.0661456"
           d="m 36.842415,220.19703 q 0,0.20577 -0.08969,0.36669 -0.08969,0.16092 -0.245337,0.25325 -0.153005,0.0923 -0.34822,0.0923 -0.192576,0 -0.34822,-0.0923 -0.153005,-0.0923 -0.245336,-0.25325 -0.08969,-0.16092 -0.08969,-0.36669 0,-0.20576 0.08969,-0.36668 0.09233,-0.16092 0.245336,-0.25326 0.155644,-0.0923 0.34822,-0.0923 0.195215,0 0.34822,0.0923 0.155644,0.0923 0.245337,0.25326 0.08969,0.16092 0.08969,0.36668 z m -0.211042,0 q 0,-0.153 -0.06331,-0.26908 -0.06068,-0.11607 -0.168834,-0.18202 -0.105521,-0.0659 -0.240061,-0.0659 -0.131901,0 -0.24006,0.0659 -0.10816,0.066 -0.171472,0.18202 -0.06068,0.11608 -0.06068,0.26908 0,0.15037 0.06068,0.26644 0.06331,0.11608 0.171472,0.18466 0.108159,0.066 0.24006,0.066 0.13454,0 0.240061,-0.066 0.108159,-0.0686 0.168834,-0.18466 0.06331,-0.11607 0.06331,-0.26644 z" />
        <path
           id="path7387"
           style="font-style:normal;font-variant:normal;font-weight:500;font-stretch:normal;font-size:2.63803px;font-family:Quicksand;-inkscape-font-specification:'Quicksand Medium';text-align:start;text-anchor:start;fill:#ffffff;fill-opacity:1;stroke-width:0.0661456"
           d="m 37.800018,219.49795 q 0.179386,0 0.290183,0.0923 0.113436,0.0897 0.150368,0.25589 h -0.03957 l 0.01847,-0.0475 q 0.03166,-0.0739 0.108159,-0.14245 0.0765,-0.0686 0.176748,-0.11344 0.100245,-0.0448 0.208404,-0.0448 0.17411,0 0.274356,0.0765 0.100245,0.0739 0.142453,0.20049 0.04485,0.12398 0.04485,0.27963 v 0.72018 q 0,0.0449 -0.03166,0.0765 -0.02902,0.0317 -0.07386,0.0317 -0.04748,0 -0.0765,-0.0317 -0.02902,-0.0316 -0.02902,-0.0765 v -0.71491 q 0,-0.10288 -0.03166,-0.18466 -0.02902,-0.0844 -0.09761,-0.1319 -0.06595,-0.0501 -0.182024,-0.0501 -0.10816,0 -0.197853,0.0501 -0.08969,0.0475 -0.142453,0.1319 -0.05276,0.0818 -0.05276,0.18466 v 0.71491 q 0,0.0449 -0.02902,0.0765 -0.02902,0.0317 -0.0765,0.0317 -0.04485,0 -0.0765,-0.0317 -0.02902,-0.0316 -0.02902,-0.0765 v -0.72282 q 0,-0.10025 -0.02902,-0.17939 -0.02638,-0.0818 -0.09233,-0.12926 -0.06595,-0.0501 -0.182024,-0.0501 -0.105521,0 -0.192576,0.0501 -0.08705,0.0475 -0.139815,0.12926 -0.05276,0.0791 -0.05276,0.17939 v 0.72282 q 0,0.0449 -0.03166,0.0765 -0.02902,0.0317 -0.07386,0.0317 -0.04485,0 -0.0765,-0.0317 -0.02902,-0.0316 -0.02902,-0.0765 v -1.15018 q 0,-0.0448 0.02902,-0.0739 0.03166,-0.0317 0.0765,-0.0317 0.04748,0 0.0765,0.0317 0.02902,0.029 0.02902,0.0739 v 0.20049 l -0.05804,0.0633 q 0.01055,-0.0686 0.05276,-0.13718 0.04485,-0.0686 0.113435,-0.12662 0.06859,-0.058 0.153006,-0.0923 0.08442,-0.0343 0.179386,-0.0343 z" />
        <path
           id="path7389"
           style="font-style:normal;font-variant:normal;font-weight:500;font-stretch:normal;font-size:2.63803px;font-family:Quicksand;-inkscape-font-specification:'Quicksand Medium';text-align:start;text-anchor:start;fill:#ffffff;fill-opacity:1;stroke-width:0.0661456"
           d="m 39.767984,220.77476 q 0,0.0449 -0.03166,0.0765 -0.02902,0.0317 -0.07386,0.0317 -0.04748,0 -0.0765,-0.0317 -0.02902,-0.0316 -0.02902,-0.0765 v -1.17129 q 0,-0.0448 0.02902,-0.0739 0.03166,-0.0317 0.0765,-0.0317 0.04485,0 0.07386,0.0317 0.03166,0.029 0.03166,0.0739 z m -0.105521,-1.45355 q -0.06595,0 -0.09761,-0.0264 -0.03166,-0.0264 -0.03166,-0.0818 v -0.0369 q 0,-0.0554 0.03429,-0.0818 0.03429,-0.0264 0.09761,-0.0264 0.06331,0 0.09497,0.0264 0.03166,0.0264 0.03166,0.0818 v 0.0369 q 0,0.0554 -0.0343,0.0818 -0.03166,0.0264 -0.09497,0.0264 z" />
        <path
           id="path7391"
           style="font-style:normal;font-variant:normal;font-weight:500;font-stretch:normal;font-size:2.63803px;font-family:Quicksand;-inkscape-font-specification:'Quicksand Medium';text-align:start;text-anchor:start;fill:#ffffff;fill-opacity:1;stroke-width:0.0661456"
           d="m 40.825831,219.48476 q 0.179386,0 0.28227,0.0739 0.102883,0.0739 0.145091,0.19785 0.04485,0.12399 0.04485,0.27699 v 0.74129 q 0,0.0449 -0.03166,0.0765 -0.02902,0.0317 -0.07386,0.0317 -0.04485,0 -0.0765,-0.0317 -0.02902,-0.0316 -0.02902,-0.0765 v -0.73601 q 0,-0.10025 -0.03166,-0.17939 -0.02902,-0.0818 -0.100245,-0.12926 -0.06859,-0.0501 -0.189938,-0.0501 -0.110798,0 -0.203129,0.0501 -0.09233,0.0475 -0.147729,0.12926 -0.0554,0.0791 -0.0554,0.17939 v 0.73601 q 0,0.0449 -0.03166,0.0765 -0.02902,0.0317 -0.07386,0.0317 -0.04485,0 -0.0765,-0.0317 -0.02902,-0.0316 -0.02902,-0.0765 v -1.15018 q 0,-0.0448 0.02902,-0.0739 0.03166,-0.0317 0.0765,-0.0317 0.04748,0 0.0765,0.0317 0.02902,0.029 0.02902,0.0739 v 0.1873 l -0.05276,0.058 q 0.01319,-0.0686 0.06067,-0.13718 0.04749,-0.0712 0.118711,-0.12663 0.07123,-0.0554 0.158282,-0.0871 0.08705,-0.0343 0.182024,-0.0343 z" />
        <path
           id="path7393"
           style="font-style:normal;font-variant:normal;font-weight:500;font-stretch:normal;font-size:2.63803px;font-family:Quicksand;-inkscape-font-specification:'Quicksand Medium';text-align:start;text-anchor:start;fill:#ffffff;fill-opacity:1;stroke-width:0.0661456"
           d="m 42.247728,219.48476 q 0.116074,0 0.213681,0.0396 0.09761,0.0369 0.168834,0.0976 0.07386,0.0607 0.113435,0.12663 0.04221,0.0659 0.04221,0.12398 l -0.05276,-0.0316 v -0.22951 q 0,-0.0448 0.02902,-0.0739 0.03166,-0.0317 0.0765,-0.0317 0.04749,0 0.0765,0.0317 0.02902,0.029 0.02902,0.0739 v 1.15546 q 0,0.21631 -0.09233,0.35877 -0.08969,0.14245 -0.242698,0.21368 -0.153006,0.0712 -0.340306,0.0712 -0.07914,0 -0.176748,-0.0211 -0.09497,-0.0211 -0.168834,-0.0528 -0.07386,-0.029 -0.09233,-0.0607 -0.03957,-0.0264 -0.05012,-0.0607 -0.0079,-0.0317 0.01055,-0.0607 0.02638,-0.0369 0.06331,-0.0369 0.03693,0 0.09497,0.0237 0.02638,0.008 0.0765,0.0264 0.05012,0.0185 0.116073,0.0316 0.06595,0.0158 0.129264,0.0158 0.224232,0 0.342944,-0.11871 0.118711,-0.11607 0.118711,-0.30865 v -0.24534 l 0.02902,0.0132 q -0.01583,0.0739 -0.06331,0.13718 -0.04749,0.0633 -0.118712,0.11344 -0.06859,0.0475 -0.155644,0.0765 -0.08442,0.0264 -0.171472,0.0264 -0.184662,0 -0.332391,-0.0923 -0.145092,-0.0923 -0.232147,-0.25325 -0.08442,-0.16092 -0.08442,-0.36669 0,-0.2084 0.08442,-0.36932 0.08705,-0.16092 0.232147,-0.25062 0.145091,-0.0923 0.327115,-0.0923 z m 0.02902,0.19522 q -0.137178,0 -0.242699,0.0686 -0.105521,0.0659 -0.166196,0.18202 -0.06067,0.11607 -0.06067,0.26644 0,0.14509 0.06067,0.2638 0.06068,0.11608 0.166196,0.18467 0.105521,0.0686 0.242699,0.0686 0.137177,0 0.242698,-0.066 0.105522,-0.0686 0.166196,-0.18466 0.06068,-0.11607 0.06068,-0.26644 0,-0.153 -0.06068,-0.26908 -0.06067,-0.11607 -0.166196,-0.18202 -0.105521,-0.0659 -0.242698,-0.0659 z" />
        <path
           id="path7395"
           style="font-style:normal;font-variant:normal;font-weight:500;font-stretch:normal;font-size:2.63803px;font-family:Quicksand;-inkscape-font-specification:'Quicksand Medium';text-align:start;text-anchor:start;fill:#ffffff;fill-opacity:1;stroke-width:0.0661456"
           d="m 43.983548,220.6666 q -0.02374,-0.0343 -0.0211,-0.0712 0.0026,-0.0396 0.04485,-0.0686 0.02638,-0.0185 0.06068,-0.0158 0.03693,0.003 0.06595,0.0343 0.07386,0.0871 0.168834,0.13982 0.09497,0.0501 0.232146,0.0501 0.06331,-0.003 0.126626,-0.0211 0.06331,-0.0185 0.105521,-0.0633 0.04485,-0.0475 0.04485,-0.12398 0,-0.0739 -0.04485,-0.11608 -0.04485,-0.0448 -0.116073,-0.0712 -0.07123,-0.029 -0.155644,-0.0501 -0.08705,-0.0237 -0.171472,-0.0528 -0.08442,-0.0317 -0.153006,-0.0765 -0.06595,-0.0475 -0.108159,-0.11607 -0.03957,-0.0712 -0.03957,-0.17148 0,-0.11871 0.06331,-0.20576 0.06595,-0.0871 0.17411,-0.13454 0.110797,-0.0475 0.240061,-0.0475 0.07386,0 0.153006,0.0185 0.08178,0.0158 0.158281,0.058 0.0765,0.0396 0.13454,0.11079 0.02374,0.0264 0.02638,0.066 0.0026,0.0396 -0.03429,0.0712 -0.02902,0.0211 -0.06595,0.0185 -0.03429,-0.003 -0.05804,-0.0264 -0.0554,-0.066 -0.139816,-0.10025 -0.08178,-0.0369 -0.182024,-0.0369 -0.06331,0 -0.123988,0.0185 -0.06067,0.0185 -0.102883,0.0633 -0.03957,0.0422 -0.03957,0.11871 0.0026,0.0712 0.04748,0.11607 0.04485,0.0449 0.12135,0.0739 0.0765,0.0264 0.168834,0.0528 0.08442,0.0211 0.160919,0.0501 0.07914,0.0264 0.142454,0.0712 0.06331,0.0448 0.100245,0.11607 0.03693,0.0686 0.03693,0.17411 0,0.12135 -0.06859,0.21104 -0.06859,0.0871 -0.182024,0.13454 -0.110797,0.0448 -0.240061,0.0448 -0.145092,0 -0.287545,-0.0554 -0.139816,-0.0554 -0.242699,-0.1873 z" />
        <path
           id="path7397"
           style="font-style:normal;font-variant:normal;font-weight:500;font-stretch:normal;font-size:2.63803px;font-family:Quicksand;-inkscape-font-specification:'Quicksand Medium';text-align:start;text-anchor:start;fill:#ffffff;fill-opacity:1;stroke-width:0.0661456"
           d="m 46.592557,220.19703 q 0,0.20577 -0.08969,0.36669 -0.08969,0.16092 -0.245337,0.25325 -0.153006,0.0923 -0.34822,0.0923 -0.192576,0 -0.34822,-0.0923 -0.153006,-0.0923 -0.245337,-0.25325 -0.08969,-0.16092 -0.08969,-0.36669 0,-0.20576 0.08969,-0.36668 0.09233,-0.16092 0.245337,-0.25326 0.155644,-0.0923 0.34822,-0.0923 0.195214,0 0.34822,0.0923 0.155644,0.0923 0.245337,0.25326 0.08969,0.16092 0.08969,0.36668 z m -0.211042,0 q 0,-0.153 -0.06331,-0.26908 -0.06067,-0.11607 -0.168834,-0.18202 -0.105521,-0.0659 -0.240061,-0.0659 -0.131901,0 -0.240061,0.0659 -0.108159,0.066 -0.171472,0.18202 -0.06067,0.11608 -0.06067,0.26908 0,0.15037 0.06067,0.26644 0.06331,0.11608 0.171472,0.18466 0.10816,0.066 0.240061,0.066 0.13454,0 0.240061,-0.066 0.108159,-0.0686 0.168834,-0.18466 0.06331,-0.11607 0.06331,-0.26644 z" />
        <path
           id="path7399"
           style="font-style:normal;font-variant:normal;font-weight:500;font-stretch:normal;font-size:2.63803px;font-family:Quicksand;-inkscape-font-specification:'Quicksand Medium';text-align:start;text-anchor:start;fill:#ffffff;fill-opacity:1;stroke-width:0.0661456"
           d="m 48.180649,220.19703 q 0,0.20577 -0.08969,0.36669 -0.08969,0.16092 -0.245337,0.25325 -0.153006,0.0923 -0.34822,0.0923 -0.192576,0 -0.34822,-0.0923 -0.153006,-0.0923 -0.245337,-0.25325 -0.08969,-0.16092 -0.08969,-0.36669 0,-0.20576 0.08969,-0.36668 0.09233,-0.16092 0.245337,-0.25326 0.155644,-0.0923 0.34822,-0.0923 0.195214,0 0.34822,0.0923 0.155644,0.0923 0.245337,0.25326 0.08969,0.16092 0.08969,0.36668 z m -0.211043,0 q 0,-0.153 -0.06331,-0.26908 -0.06068,-0.11607 -0.168834,-0.18202 -0.105521,-0.0659 -0.240061,-0.0659 -0.131901,0 -0.240061,0.0659 -0.108159,0.066 -0.171472,0.18202 -0.06067,0.11608 -0.06067,0.26908 0,0.15037 0.06067,0.26644 0.06331,0.11608 0.171472,0.18466 0.10816,0.066 0.240061,0.066 0.13454,0 0.240061,-0.066 0.108159,-0.0686 0.168834,-0.18466 0.06331,-0.11607 0.06331,-0.26644 z" />
        <path
           id="path7401"
           style="font-style:normal;font-variant:normal;font-weight:500;font-stretch:normal;font-size:2.63803px;font-family:Quicksand;-inkscape-font-specification:'Quicksand Medium';text-align:start;text-anchor:start;fill:#ffffff;fill-opacity:1;stroke-width:0.0661456"
           d="m 49.164633,219.48476 q 0.179386,0 0.282269,0.0739 0.102883,0.0739 0.145092,0.19785 0.04485,0.12399 0.04485,0.27699 v 0.74129 q 0,0.0449 -0.03166,0.0765 -0.02902,0.0317 -0.07386,0.0317 -0.04485,0 -0.0765,-0.0317 -0.02902,-0.0316 -0.02902,-0.0765 v -0.73601 q 0,-0.10025 -0.03166,-0.17939 -0.02902,-0.0818 -0.100245,-0.12926 -0.06859,-0.0501 -0.189938,-0.0501 -0.110797,0 -0.203128,0.0501 -0.09233,0.0475 -0.14773,0.12926 -0.0554,0.0791 -0.0554,0.17939 v 0.73601 q 0,0.0449 -0.03166,0.0765 -0.02902,0.0317 -0.07386,0.0317 -0.04485,0 -0.0765,-0.0317 -0.02902,-0.0316 -0.02902,-0.0765 v -1.15018 q 0,-0.0448 0.02902,-0.0739 0.03166,-0.0317 0.0765,-0.0317 0.04749,0 0.0765,0.0317 0.02902,0.029 0.02902,0.0739 v 0.1873 l -0.05276,0.058 q 0.01319,-0.0686 0.06067,-0.13718 0.04749,-0.0712 0.118712,-0.12663 0.07123,-0.0554 0.158282,-0.0871 0.08706,-0.0343 0.182024,-0.0343 z" />
        <path
           id="path7403"
           style="font-style:normal;font-variant:normal;font-weight:500;font-stretch:normal;font-size:2.63803px;font-family:Quicksand;-inkscape-font-specification:'Quicksand Medium';text-align:start;text-anchor:start;fill:#ffffff;fill-opacity:1;stroke-width:0.0661456"
           d="m 50.296346,220.86973 q 0,0.0528 -0.02374,0.1108 -0.0211,0.0607 -0.06067,0.11343 -0.03957,0.0528 -0.08705,0.0844 -0.04749,0.0343 -0.09497,0.0343 -0.03693,0 -0.06331,-0.0185 -0.02374,-0.0158 -0.02374,-0.0554 0,-0.0501 0.03166,-0.058 0.03429,-0.008 0.06595,-0.0237 0.03429,-0.0185 0.05276,-0.0528 0.0211,-0.0317 0.0211,-0.0686 0,-0.029 -0.0211,-0.0501 -0.01847,-0.0185 -0.05012,-0.0185 -0.01847,0 -0.03957,0.005 -0.01847,0.005 -0.03166,0.0158 -0.01847,-0.0132 -0.03166,-0.0317 -0.01319,-0.0185 -0.01319,-0.0475 0.0026,-0.0396 0.02902,-0.0712 0.02902,-0.0317 0.07123,-0.0501 0.04485,-0.0185 0.08442,-0.0185 0.08178,0 0.131902,0.0528 0.05276,0.0501 0.05276,0.14773 z" />
        <path
           id="path7405"
           style="font-style:normal;font-variant:normal;font-weight:500;font-stretch:normal;font-size:2.63803px;font-family:Quicksand;-inkscape-font-specification:'Quicksand Medium';text-align:start;text-anchor:start;fill:#ffffff;fill-opacity:1;stroke-width:0.0661456"
           d="m 51.259222,220.6666 q -0.02374,-0.0343 -0.0211,-0.0712 0.0026,-0.0396 0.04485,-0.0686 0.02638,-0.0185 0.06068,-0.0158 0.03693,0.003 0.06595,0.0343 0.07386,0.0871 0.168834,0.13982 0.09497,0.0501 0.232146,0.0501 0.06331,-0.003 0.126626,-0.0211 0.06331,-0.0185 0.105521,-0.0633 0.04485,-0.0475 0.04485,-0.12398 0,-0.0739 -0.04485,-0.11608 -0.04485,-0.0448 -0.116073,-0.0712 -0.07123,-0.029 -0.155644,-0.0501 -0.08705,-0.0237 -0.171472,-0.0528 -0.08442,-0.0317 -0.153006,-0.0765 -0.06595,-0.0475 -0.108159,-0.11607 -0.03957,-0.0712 -0.03957,-0.17148 0,-0.11871 0.06331,-0.20576 0.06595,-0.0871 0.17411,-0.13454 0.110797,-0.0475 0.240061,-0.0475 0.07386,0 0.153006,0.0185 0.08178,0.0158 0.158281,0.058 0.0765,0.0396 0.13454,0.11079 0.02374,0.0264 0.02638,0.066 0.0026,0.0396 -0.03429,0.0712 -0.02902,0.0211 -0.06595,0.0185 -0.03429,-0.003 -0.05804,-0.0264 -0.0554,-0.066 -0.139815,-0.10025 -0.08178,-0.0369 -0.182024,-0.0369 -0.06331,0 -0.123988,0.0185 -0.06067,0.0185 -0.102883,0.0633 -0.03957,0.0422 -0.03957,0.11871 0.0026,0.0712 0.04748,0.11607 0.04485,0.0449 0.12135,0.0739 0.0765,0.0264 0.168834,0.0528 0.08442,0.0211 0.160919,0.0501 0.07914,0.0264 0.142454,0.0712 0.06331,0.0448 0.100245,0.11607 0.03693,0.0686 0.03693,0.17411 0,0.12135 -0.06859,0.21104 -0.06859,0.0871 -0.182024,0.13454 -0.110798,0.0448 -0.240061,0.0448 -0.145092,0 -0.287545,-0.0554 -0.139816,-0.0554 -0.242699,-0.1873 z" />
        <path
           id="path7407"
           style="font-style:normal;font-variant:normal;font-weight:500;font-stretch:normal;font-size:2.63803px;font-family:Quicksand;-inkscape-font-specification:'Quicksand Medium';text-align:start;text-anchor:start;fill:#ffffff;fill-opacity:1;stroke-width:0.0661456"
           d="m 52.53339,219.52697 h 0.619937 q 0.04221,0 0.06859,0.029 0.02902,0.029 0.02902,0.0686 0,0.0422 -0.02902,0.0712 -0.02638,0.0264 -0.06859,0.0264 H 52.53339 q -0.03957,0 -0.06859,-0.029 -0.02902,-0.029 -0.02902,-0.0712 0,-0.0396 0.02902,-0.0659 0.02902,-0.029 0.06859,-0.029 z m 0.276993,-0.35877 q 0.04485,0 0.07386,0.0317 0.02902,0.029 0.02902,0.0739 v 1.27417 q 0,0.0633 0.01847,0.095 0.01847,0.0316 0.04749,0.0448 0.03166,0.0105 0.06067,0.0105 0.02638,0 0.04485,-0.008 0.0211,-0.0105 0.04748,-0.0105 0.02638,0 0.04749,0.0264 0.02374,0.0237 0.02374,0.0633 0,0.0475 -0.0554,0.0818 -0.0554,0.0317 -0.123988,0.0317 -0.03693,0 -0.09233,-0.005 -0.05276,-0.005 -0.105521,-0.0343 -0.05276,-0.029 -0.08969,-0.095 -0.0343,-0.0686 -0.0343,-0.18994 v -1.28472 q 0,-0.0448 0.03166,-0.0739 0.03166,-0.0317 0.0765,-0.0317 z" />
        <path
           id="path7409"
           style="font-style:normal;font-variant:normal;font-weight:500;font-stretch:normal;font-size:2.63803px;font-family:Quicksand;-inkscape-font-specification:'Quicksand Medium';text-align:start;text-anchor:start;fill:#ffffff;fill-opacity:1;stroke-width:0.0661456"
           d="m 54.654362,219.50587 q 0.04749,0 0.0765,0.0317 0.02902,0.029 0.02902,0.0739 v 1.16337 q 0,0.0449 -0.03166,0.0765 -0.02902,0.0317 -0.07386,0.0317 -0.04485,0 -0.0765,-0.0317 -0.02902,-0.0316 -0.02902,-0.0765 v -0.25061 l 0.05012,-0.005 q 0,0.058 -0.03957,0.12663 -0.03957,0.0686 -0.108159,0.12926 -0.06859,0.058 -0.16092,0.0976 -0.09233,0.0369 -0.20049,0.0369 -0.179386,0 -0.324478,-0.0923 -0.142453,-0.095 -0.224232,-0.25589 -0.08178,-0.16092 -0.08178,-0.36669 0,-0.2084 0.08178,-0.36668 0.08442,-0.16092 0.224232,-0.25062 0.142454,-0.0923 0.319202,-0.0923 0.113435,0 0.211042,0.0369 0.09761,0.0369 0.168834,0.10024 0.07386,0.0633 0.113435,0.13982 0.03957,0.0765 0.03957,0.153 l -0.06859,-0.0158 v -0.28754 q 0,-0.0448 0.02902,-0.0739 0.03166,-0.0317 0.0765,-0.0317 z m -0.543434,1.20822 q 0.131902,0 0.232147,-0.0686 0.102883,-0.0686 0.16092,-0.18467 0.05804,-0.11871 0.05804,-0.26644 0,-0.14509 -0.05804,-0.26116 -0.05804,-0.11871 -0.16092,-0.18466 -0.100245,-0.0686 -0.232147,-0.0686 -0.129263,0 -0.232147,0.0659 -0.100245,0.066 -0.158281,0.18202 -0.05804,0.11608 -0.05804,0.26644 0,0.14773 0.05804,0.26644 0.05804,0.11608 0.158281,0.18467 0.102884,0.0686 0.232147,0.0686 z" />
        <path
           id="path7411"
           style="font-style:normal;font-variant:normal;font-weight:500;font-stretch:normal;font-size:2.63803px;font-family:Quicksand;-inkscape-font-specification:'Quicksand Medium';text-align:start;text-anchor:start;fill:#ffffff;fill-opacity:1;stroke-width:0.0661456"
           d="m 55.255831,220.88292 q -0.04485,0 -0.0765,-0.0317 -0.02902,-0.0316 -0.02902,-0.0765 v -1.15018 q 0,-0.0448 0.02902,-0.0739 0.03166,-0.0317 0.0765,-0.0317 0.04748,0 0.0765,0.0317 0.02902,0.029 0.02902,0.0739 v 0.34822 l -0.03166,-0.0554 q 0.01583,-0.0818 0.0554,-0.15828 0.04221,-0.0791 0.105521,-0.13982 0.06331,-0.0633 0.145092,-0.0976 0.08178,-0.0369 0.179386,-0.0369 0.05804,0 0.105521,0.029 0.05012,0.0264 0.05012,0.0765 0,0.0554 -0.02902,0.0818 -0.02902,0.0264 -0.06595,0.0264 -0.0343,0 -0.06595,-0.0132 -0.03166,-0.0158 -0.07914,-0.0158 -0.06595,0 -0.131901,0.0369 -0.06331,0.0343 -0.118712,0.10024 -0.05276,0.0659 -0.08705,0.15037 -0.03166,0.0818 -0.03166,0.17675 v 0.64104 q 0,0.0449 -0.03166,0.0765 -0.02902,0.0317 -0.07386,0.0317 z" />
        <path
           id="path7413"
           style="font-style:normal;font-variant:normal;font-weight:500;font-stretch:normal;font-size:2.63803px;font-family:Quicksand;-inkscape-font-specification:'Quicksand Medium';text-align:start;text-anchor:start;fill:#ffffff;fill-opacity:1;stroke-width:0.0661456"
           d="m 56.155397,219.52697 h 0.619937 q 0.04221,0 0.06859,0.029 0.02902,0.029 0.02902,0.0686 0,0.0422 -0.02902,0.0712 -0.02638,0.0264 -0.06859,0.0264 h -0.619937 q -0.03957,0 -0.06859,-0.029 -0.02902,-0.029 -0.02902,-0.0712 0,-0.0396 0.02902,-0.0659 0.02902,-0.029 0.06859,-0.029 z m 0.276993,-0.35877 q 0.04485,0 0.07387,0.0317 0.02902,0.029 0.02902,0.0739 v 1.27417 q 0,0.0633 0.01847,0.095 0.01847,0.0316 0.04749,0.0448 0.03166,0.0105 0.06067,0.0105 0.02638,0 0.04485,-0.008 0.0211,-0.0105 0.04749,-0.0105 0.02638,0 0.04748,0.0264 0.02374,0.0237 0.02374,0.0633 0,0.0475 -0.0554,0.0818 -0.0554,0.0317 -0.123988,0.0317 -0.03693,0 -0.09233,-0.005 -0.05276,-0.005 -0.105521,-0.0343 -0.05276,-0.029 -0.08969,-0.095 -0.03429,-0.0686 -0.03429,-0.18994 v -1.28472 q 0,-0.0448 0.03166,-0.0739 0.03166,-0.0317 0.0765,-0.0317 z" />
        <path
           id="path7415"
           style="font-style:normal;font-variant:normal;font-weight:500;font-stretch:normal;font-size:2.63803px;font-family:Quicksand;-inkscape-font-specification:'Quicksand Medium';text-align:start;text-anchor:start;fill:#ffffff;fill-opacity:1;stroke-width:0.0661456"
           d="m 57.368887,220.77476 q 0,0.0449 -0.03166,0.0765 -0.02902,0.0317 -0.07387,0.0317 -0.04748,0 -0.0765,-0.0317 -0.02902,-0.0316 -0.02902,-0.0765 v -1.17129 q 0,-0.0448 0.02902,-0.0739 0.03166,-0.0317 0.0765,-0.0317 0.04485,0 0.07387,0.0317 0.03166,0.029 0.03166,0.0739 z m -0.105521,-1.45355 q -0.06595,0 -0.09761,-0.0264 -0.03166,-0.0264 -0.03166,-0.0818 v -0.0369 q 0,-0.0554 0.03429,-0.0818 0.03429,-0.0264 0.09761,-0.0264 0.06331,0 0.09497,0.0264 0.03166,0.0264 0.03166,0.0818 v 0.0369 q 0,0.0554 -0.0343,0.0818 -0.03166,0.0264 -0.09497,0.0264 z" />
        <path
           id="path7417"
           style="font-style:normal;font-variant:normal;font-weight:500;font-stretch:normal;font-size:2.63803px;font-family:Quicksand;-inkscape-font-specification:'Quicksand Medium';text-align:start;text-anchor:start;fill:#ffffff;fill-opacity:1;stroke-width:0.0661456"
           d="m 58.426735,219.48476 q 0.179386,0 0.282269,0.0739 0.102883,0.0739 0.145092,0.19785 0.04485,0.12399 0.04485,0.27699 v 0.74129 q 0,0.0449 -0.03166,0.0765 -0.02902,0.0317 -0.07386,0.0317 -0.04485,0 -0.0765,-0.0317 -0.02902,-0.0316 -0.02902,-0.0765 v -0.73601 q 0,-0.10025 -0.03166,-0.17939 -0.02902,-0.0818 -0.100245,-0.12926 -0.06859,-0.0501 -0.189938,-0.0501 -0.110797,0 -0.203128,0.0501 -0.09233,0.0475 -0.14773,0.12926 -0.0554,0.0791 -0.0554,0.17939 v 0.73601 q 0,0.0449 -0.03166,0.0765 -0.02902,0.0317 -0.07387,0.0317 -0.04485,0 -0.0765,-0.0317 -0.02902,-0.0316 -0.02902,-0.0765 v -1.15018 q 0,-0.0448 0.02902,-0.0739 0.03166,-0.0317 0.0765,-0.0317 0.04749,0 0.0765,0.0317 0.02902,0.029 0.02902,0.0739 v 0.1873 l -0.05276,0.058 q 0.01319,-0.0686 0.06067,-0.13718 0.04748,-0.0712 0.118711,-0.12663 0.07123,-0.0554 0.158282,-0.0871 0.08705,-0.0343 0.182024,-0.0343 z" />
        <path
           id="path7419"
           style="font-style:normal;font-variant:normal;font-weight:500;font-stretch:normal;font-size:2.63803px;font-family:Quicksand;-inkscape-font-specification:'Quicksand Medium';text-align:start;text-anchor:start;fill:#ffffff;fill-opacity:1;stroke-width:0.0661456"
           d="m 59.848631,219.48476 q 0.116073,0 0.21368,0.0396 0.09761,0.0369 0.168834,0.0976 0.07387,0.0607 0.113436,0.12663 0.04221,0.0659 0.04221,0.12398 l -0.05276,-0.0316 v -0.22951 q 0,-0.0448 0.02902,-0.0739 0.03166,-0.0317 0.0765,-0.0317 0.04748,0 0.0765,0.0317 0.02902,0.029 0.02902,0.0739 v 1.15546 q 0,0.21631 -0.09233,0.35877 -0.08969,0.14245 -0.242699,0.21368 -0.153006,0.0712 -0.340306,0.0712 -0.07914,0 -0.176748,-0.0211 -0.09497,-0.0211 -0.168834,-0.0528 -0.07386,-0.029 -0.09233,-0.0607 -0.03957,-0.0264 -0.05012,-0.0607 -0.0079,-0.0317 0.01055,-0.0607 0.02638,-0.0369 0.06331,-0.0369 0.03693,0 0.09497,0.0237 0.02638,0.008 0.0765,0.0264 0.05012,0.0185 0.116074,0.0316 0.06595,0.0158 0.129263,0.0158 0.224233,0 0.342944,-0.11871 0.118711,-0.11607 0.118711,-0.30865 v -0.24534 l 0.02902,0.0132 q -0.01583,0.0739 -0.06331,0.13718 -0.04748,0.0633 -0.118711,0.11344 -0.06859,0.0475 -0.155644,0.0765 -0.08442,0.0264 -0.171472,0.0264 -0.184662,0 -0.332392,-0.0923 -0.145091,-0.0923 -0.232146,-0.25325 -0.08442,-0.16092 -0.08442,-0.36669 0,-0.2084 0.08442,-0.36932 0.08705,-0.16092 0.232146,-0.25062 0.145092,-0.0923 0.327116,-0.0923 z m 0.02902,0.19522 q -0.137177,0 -0.242698,0.0686 -0.105522,0.0659 -0.166196,0.18202 -0.06068,0.11607 -0.06068,0.26644 0,0.14509 0.06068,0.2638 0.06067,0.11608 0.166196,0.18467 0.105521,0.0686 0.242698,0.0686 0.137178,0 0.242699,-0.066 0.105521,-0.0686 0.166196,-0.18466 0.06068,-0.11607 0.06068,-0.26644 0,-0.153 -0.06068,-0.26908 -0.06067,-0.11607 -0.166196,-0.18202 -0.105521,-0.0659 -0.242699,-0.0659 z" />
        <path
           id="path7421"
           style="font-style:normal;font-variant:normal;font-weight:500;font-stretch:normal;font-size:2.63803px;font-family:Quicksand;-inkscape-font-specification:'Quicksand Medium';text-align:start;text-anchor:start;fill:#ffffff;fill-opacity:1;stroke-width:0.0661456"
           d="m 61.864083,220.77476 q 0,0.0449 -0.03166,0.0765 -0.02902,0.0317 -0.07386,0.0317 -0.04748,0 -0.0765,-0.0317 -0.02902,-0.0316 -0.02902,-0.0765 v -1.17129 q 0,-0.0448 0.02902,-0.0739 0.03166,-0.0317 0.0765,-0.0317 0.04485,0 0.07386,0.0317 0.03166,0.029 0.03166,0.0739 z m -0.105521,-1.45355 q -0.06595,0 -0.09761,-0.0264 -0.03166,-0.0264 -0.03166,-0.0818 v -0.0369 q 0,-0.0554 0.03429,-0.0818 0.0343,-0.0264 0.09761,-0.0264 0.06331,0 0.09497,0.0264 0.03166,0.0264 0.03166,0.0818 v 0.0369 q 0,0.0554 -0.03429,0.0818 -0.03166,0.0264 -0.09497,0.0264 z" />
        <path
           id="path7423"
           style="font-style:normal;font-variant:normal;font-weight:500;font-stretch:normal;font-size:2.63803px;font-family:Quicksand;-inkscape-font-specification:'Quicksand Medium';text-align:start;text-anchor:start;fill:#ffffff;fill-opacity:1;stroke-width:0.0661456"
           d="m 62.921928,219.48476 q 0.179386,0 0.28227,0.0739 0.102883,0.0739 0.145091,0.19785 0.04485,0.12399 0.04485,0.27699 v 0.74129 q 0,0.0449 -0.03166,0.0765 -0.02902,0.0317 -0.07386,0.0317 -0.04485,0 -0.0765,-0.0317 -0.02902,-0.0316 -0.02902,-0.0765 v -0.73601 q 0,-0.10025 -0.03166,-0.17939 -0.02902,-0.0818 -0.100245,-0.12926 -0.06859,-0.0501 -0.189938,-0.0501 -0.110798,0 -0.203129,0.0501 -0.09233,0.0475 -0.147729,0.12926 -0.0554,0.0791 -0.0554,0.17939 v 0.73601 q 0,0.0449 -0.03166,0.0765 -0.02902,0.0317 -0.07386,0.0317 -0.04485,0 -0.0765,-0.0317 -0.02902,-0.0316 -0.02902,-0.0765 v -1.15018 q 0,-0.0448 0.02902,-0.0739 0.03166,-0.0317 0.0765,-0.0317 0.04748,0 0.0765,0.0317 0.02902,0.029 0.02902,0.0739 v 0.1873 l -0.05276,0.058 q 0.01319,-0.0686 0.06067,-0.13718 0.04749,-0.0712 0.118711,-0.12663 0.07123,-0.0554 0.158282,-0.0871 0.08705,-0.0343 0.182024,-0.0343 z" />
        <path
           id="path7425"
           style="font-style:normal;font-variant:normal;font-weight:500;font-stretch:normal;font-size:2.63803px;font-family:Quicksand;-inkscape-font-specification:'Quicksand Medium';text-align:start;text-anchor:start;fill:#ffffff;fill-opacity:1;stroke-width:0.0661456"
           d="m 65.085113,220.9093 q -0.195215,0 -0.342944,-0.058 -0.14773,-0.058 -0.284907,-0.18466 -0.01847,-0.0185 -0.03166,-0.0396 -0.01055,-0.0237 -0.01055,-0.0501 0,-0.0422 0.02902,-0.0739 0.03166,-0.0343 0.0765,-0.0343 0.03693,0 0.06595,0.029 0.102883,0.10024 0.221595,0.153 0.121349,0.0528 0.271717,0.0528 0.116073,0 0.208404,-0.0369 0.09497,-0.0369 0.150368,-0.10288 0.0554,-0.0659 0.0554,-0.15301 -0.0026,-0.10552 -0.06331,-0.17411 -0.05804,-0.0686 -0.163558,-0.11343 -0.102883,-0.0475 -0.240061,-0.0791 -0.121349,-0.029 -0.224233,-0.0712 -0.100245,-0.0422 -0.17411,-0.10288 -0.07386,-0.0633 -0.116073,-0.15037 -0.03957,-0.0897 -0.03957,-0.20841 0,-0.15036 0.07914,-0.2638 0.07914,-0.11343 0.218956,-0.17411 0.139816,-0.0633 0.32184,-0.0633 0.16092,0 0.303373,0.0528 0.145092,0.0528 0.232147,0.14509 0.05276,0.0501 0.05276,0.0976 0,0.0396 -0.03429,0.0739 -0.03166,0.0317 -0.07386,0.0317 -0.02902,0 -0.05276,-0.0211 -0.04485,-0.0501 -0.113436,-0.0897 -0.06859,-0.0396 -0.150367,-0.0633 -0.08178,-0.0237 -0.163558,-0.0237 -0.12135,0 -0.213681,0.0369 -0.09233,0.0343 -0.145091,0.10024 -0.05012,0.0633 -0.05012,0.15301 0,0.10024 0.05804,0.1662 0.05804,0.0633 0.155644,0.10552 0.09761,0.0396 0.216318,0.0712 0.129263,0.0317 0.237423,0.0739 0.110797,0.0396 0.189938,0.10024 0.07914,0.0607 0.121349,0.15565 0.04485,0.0923 0.04485,0.22951 0,0.14509 -0.08178,0.25852 -0.08178,0.11344 -0.224233,0.17939 -0.139815,0.0633 -0.316563,0.066 z" />
        <path
           id="path7427"
           style="font-style:normal;font-variant:normal;font-weight:500;font-stretch:normal;font-size:2.63803px;font-family:Quicksand;-inkscape-font-specification:'Quicksand Medium';text-align:start;text-anchor:start;fill:#ffffff;fill-opacity:1;stroke-width:0.0661456"
           d="m 66.641546,220.9093 q -0.211042,0 -0.369324,-0.0897 -0.158282,-0.0897 -0.245337,-0.24534 -0.08705,-0.15828 -0.08705,-0.36405 0,-0.22951 0.08969,-0.39043 0.09233,-0.16355 0.237423,-0.24797 0.145092,-0.0871 0.308649,-0.0871 0.123988,0 0.234785,0.0448 0.113435,0.0448 0.20049,0.1319 0.08969,0.0844 0.142454,0.20577 0.05276,0.11871 0.0554,0.26644 -0.0026,0.0422 -0.0343,0.0712 -0.03166,0.029 -0.07387,0.029 h -1.042021 l -0.04749,-0.18202 h 1.015642 l -0.04221,0.0369 v -0.058 q -0.0079,-0.10816 -0.07123,-0.18467 -0.06067,-0.0791 -0.150367,-0.12135 -0.08969,-0.0422 -0.187301,-0.0422 -0.07914,0 -0.158281,0.029 -0.0765,0.0264 -0.139816,0.0897 -0.06067,0.0607 -0.09761,0.15828 -0.03693,0.0976 -0.03693,0.23478 0,0.15301 0.06068,0.26908 0.06331,0.11608 0.17411,0.18466 0.110797,0.066 0.255889,0.066 0.09497,0 0.163558,-0.0238 0.06859,-0.0237 0.116073,-0.058 0.05012,-0.0369 0.08442,-0.0739 0.0343,-0.0237 0.06859,-0.0237 0.03693,0 0.06331,0.0264 0.02638,0.0264 0.02638,0.0633 0,0.0448 -0.04221,0.0791 -0.0765,0.0818 -0.203129,0.14509 -0.123987,0.0607 -0.269079,0.0607 z" />
        <path
           id="path7429"
           style="font-style:normal;font-variant:normal;font-weight:500;font-stretch:normal;font-size:2.63803px;font-family:Quicksand;-inkscape-font-specification:'Quicksand Medium';text-align:start;text-anchor:start;fill:#ffffff;fill-opacity:1;stroke-width:0.0661456"
           d="m 68.184795,219.49795 q 0.179386,0 0.32184,0.0897 0.142453,0.0897 0.224232,0.24797 0.08442,0.15828 0.08442,0.36405 0,0.20313 -0.08442,0.36405 -0.08178,0.15828 -0.224232,0.25061 -0.139816,0.0897 -0.316564,0.0897 -0.09761,0 -0.184662,-0.029 -0.08442,-0.0317 -0.155644,-0.0791 -0.06859,-0.0501 -0.116073,-0.11079 -0.04749,-0.0633 -0.06859,-0.12399 l 0.05804,-0.0369 v 0.77822 q 0,0.0448 -0.02902,0.0765 -0.02902,0.0317 -0.0765,0.0317 -0.04485,0 -0.0765,-0.0317 -0.02902,-0.029 -0.02902,-0.0765 v -1.68571 q 0,-0.0448 0.02902,-0.0739 0.03166,-0.0317 0.0765,-0.0317 0.04748,0 0.0765,0.0317 0.02902,0.029 0.02902,0.0739 v 0.23479 l -0.03957,-0.0211 q 0.01847,-0.066 0.06331,-0.12663 0.04748,-0.0607 0.113435,-0.10552 0.06859,-0.0475 0.150368,-0.0739 0.08442,-0.0264 0.17411,-0.0264 z m -0.02374,0.19522 q -0.131902,0 -0.234785,0.0659 -0.100245,0.066 -0.158282,0.17938 -0.0554,0.11344 -0.0554,0.26117 0,0.14509 0.0554,0.26116 0.05804,0.11608 0.158282,0.18203 0.102883,0.0659 0.234785,0.0659 0.131901,0 0.232146,-0.0659 0.100245,-0.066 0.158282,-0.18203 0.05804,-0.11607 0.05804,-0.26116 0,-0.14773 -0.05804,-0.26117 -0.05804,-0.11343 -0.158282,-0.17938 -0.100245,-0.0659 -0.232146,-0.0659 z" />
        <path
           id="path7431"
           style="font-style:normal;font-variant:normal;font-weight:500;font-stretch:normal;font-size:2.63803px;font-family:Quicksand;-inkscape-font-specification:'Quicksand Medium';text-align:start;text-anchor:start;fill:#ffffff;fill-opacity:1;stroke-width:0.0661456"
           d="m 69.065893,219.52697 h 0.619937 q 0.04221,0 0.06859,0.029 0.02902,0.029 0.02902,0.0686 0,0.0422 -0.02902,0.0712 -0.02638,0.0264 -0.06859,0.0264 h -0.619937 q -0.03957,0 -0.06859,-0.029 -0.02902,-0.029 -0.02902,-0.0712 0,-0.0396 0.02902,-0.0659 0.02902,-0.029 0.06859,-0.029 z m 0.276993,-0.35877 q 0.04485,0 0.07387,0.0317 0.02902,0.029 0.02902,0.0739 v 1.27417 q 0,0.0633 0.01847,0.095 0.01847,0.0316 0.04748,0.0448 0.03166,0.0105 0.06067,0.0105 0.02638,0 0.04485,-0.008 0.0211,-0.0105 0.04748,-0.0105 0.02638,0 0.04748,0.0264 0.02374,0.0237 0.02374,0.0633 0,0.0475 -0.0554,0.0818 -0.0554,0.0317 -0.123988,0.0317 -0.03693,0 -0.09233,-0.005 -0.05276,-0.005 -0.105521,-0.0343 -0.05276,-0.029 -0.08969,-0.095 -0.03429,-0.0686 -0.03429,-0.18994 v -1.28472 q 0,-0.0448 0.03166,-0.0739 0.03166,-0.0317 0.0765,-0.0317 z" />
        <path
           id="path7433"
           style="font-style:normal;font-variant:normal;font-weight:500;font-stretch:normal;font-size:2.63803px;font-family:Quicksand;-inkscape-font-specification:'Quicksand Medium';text-align:start;text-anchor:start;fill:#ffffff;fill-opacity:1;stroke-width:0.0661456"
           d="m 70.680361,220.9093 q -0.211043,0 -0.369325,-0.0897 -0.158281,-0.0897 -0.245336,-0.24534 -0.08706,-0.15828 -0.08706,-0.36405 0,-0.22951 0.08969,-0.39043 0.09233,-0.16355 0.237422,-0.24797 0.145092,-0.0871 0.30865,-0.0871 0.123987,0 0.234785,0.0448 0.113435,0.0448 0.20049,0.1319 0.08969,0.0844 0.142454,0.20577 0.05276,0.11871 0.0554,0.26644 -0.0026,0.0422 -0.03429,0.0712 -0.03166,0.029 -0.07387,0.029 h -1.042022 l -0.04748,-0.18202 h 1.015641 l -0.04221,0.0369 v -0.058 q -0.0079,-0.10816 -0.07123,-0.18467 -0.06068,-0.0791 -0.150368,-0.12135 -0.08969,-0.0422 -0.1873,-0.0422 -0.07914,0 -0.158282,0.029 -0.0765,0.0264 -0.139815,0.0897 -0.06067,0.0607 -0.09761,0.15828 -0.03693,0.0976 -0.03693,0.23478 0,0.15301 0.06067,0.26908 0.06331,0.11608 0.17411,0.18466 0.110797,0.066 0.255889,0.066 0.09497,0 0.163557,-0.0238 0.06859,-0.0237 0.116074,-0.058 0.05012,-0.0369 0.08442,-0.0739 0.03429,-0.0237 0.06859,-0.0237 0.03693,0 0.06331,0.0264 0.02638,0.0264 0.02638,0.0633 0,0.0448 -0.04221,0.0791 -0.0765,0.0818 -0.203128,0.14509 -0.123988,0.0607 -0.269079,0.0607 z" />
        <path
           id="path7435"
           style="font-style:normal;font-variant:normal;font-weight:500;font-stretch:normal;font-size:2.63803px;font-family:Quicksand;-inkscape-font-specification:'Quicksand Medium';text-align:start;text-anchor:start;fill:#ffffff;fill-opacity:1;stroke-width:0.0661456"
           d="m 72.202501,219.49795 q 0.179387,0 0.290184,0.0923 0.113435,0.0897 0.150367,0.25589 h -0.03957 l 0.01847,-0.0475 q 0.03166,-0.0739 0.108159,-0.14245 0.0765,-0.0686 0.176748,-0.11344 0.100246,-0.0448 0.208405,-0.0448 0.17411,0 0.274355,0.0765 0.100245,0.0739 0.142454,0.20049 0.04485,0.12398 0.04485,0.27963 v 0.72018 q 0,0.0449 -0.03166,0.0765 -0.02902,0.0317 -0.07386,0.0317 -0.04749,0 -0.0765,-0.0317 -0.02902,-0.0316 -0.02902,-0.0765 v -0.71491 q 0,-0.10288 -0.03166,-0.18466 -0.02902,-0.0844 -0.09761,-0.1319 -0.06595,-0.0501 -0.182024,-0.0501 -0.108159,0 -0.197852,0.0501 -0.08969,0.0475 -0.142454,0.1319 -0.05276,0.0818 -0.05276,0.18466 v 0.71491 q 0,0.0449 -0.02902,0.0765 -0.02902,0.0317 -0.0765,0.0317 -0.04485,0 -0.0765,-0.0317 -0.02902,-0.0316 -0.02902,-0.0765 v -0.72282 q 0,-0.10025 -0.02902,-0.17939 -0.02638,-0.0818 -0.09233,-0.12926 -0.06595,-0.0501 -0.182024,-0.0501 -0.105521,0 -0.192576,0.0501 -0.08705,0.0475 -0.139816,0.12926 -0.05276,0.0791 -0.05276,0.17939 v 0.72282 q 0,0.0449 -0.03166,0.0765 -0.02902,0.0317 -0.07386,0.0317 -0.04485,0 -0.0765,-0.0317 -0.02902,-0.0316 -0.02902,-0.0765 v -1.15018 q 0,-0.0448 0.02902,-0.0739 0.03166,-0.0317 0.0765,-0.0317 0.04748,0 0.0765,0.0317 0.02902,0.029 0.02902,0.0739 v 0.20049 l -0.05804,0.0633 q 0.01055,-0.0686 0.05276,-0.13718 0.04485,-0.0686 0.113436,-0.12662 0.06859,-0.058 0.153005,-0.0923 0.08442,-0.0343 0.179386,-0.0343 z" />
        <path
           id="path7437"
           style="font-style:normal;font-variant:normal;font-weight:500;font-stretch:normal;font-size:2.63803px;font-family:Quicksand;-inkscape-font-specification:'Quicksand Medium';text-align:start;text-anchor:start;fill:#ffffff;fill-opacity:1;stroke-width:0.0661456"
           d="m 74.640037,219.48476 q 0.179386,0 0.32184,0.0923 0.142453,0.0897 0.224232,0.24798 0.08442,0.15828 0.08442,0.36669 0,0.2084 -0.08442,0.36932 -0.08178,0.16092 -0.224232,0.25589 -0.139816,0.0923 -0.316564,0.0923 -0.09761,0 -0.184662,-0.029 -0.08442,-0.0317 -0.155644,-0.0818 -0.06859,-0.0528 -0.116073,-0.11343 -0.04749,-0.0633 -0.06859,-0.12399 l 0.05804,-0.0369 v 0.2638 q 0,0.0448 -0.02902,0.0765 -0.02902,0.0317 -0.0765,0.0317 -0.04485,0 -0.0765,-0.029 -0.02902,-0.0317 -0.02902,-0.0791 v -1.74901 q 0,-0.0448 0.02902,-0.0765 0.03166,-0.0317 0.0765,-0.0317 0.04748,0 0.0765,0.0317 0.02902,0.0317 0.02902,0.0765 v 0.81251 l -0.03957,-0.0211 q 0.01847,-0.066 0.06331,-0.12663 0.04749,-0.0633 0.113435,-0.1108 0.06859,-0.0501 0.150368,-0.0791 0.08442,-0.029 0.17411,-0.029 z m -0.02374,0.19522 q -0.131902,0 -0.234785,0.0659 -0.100245,0.066 -0.158282,0.18202 -0.0554,0.11608 -0.0554,0.26381 0,0.14773 0.0554,0.26644 0.05804,0.11871 0.158282,0.1873 0.102883,0.0686 0.234785,0.0686 0.131901,0 0.232147,-0.0686 0.100245,-0.0686 0.158281,-0.1873 0.05804,-0.11871 0.05804,-0.26644 0,-0.14773 -0.05804,-0.26381 -0.05804,-0.11607 -0.158281,-0.18202 -0.100246,-0.0659 -0.232147,-0.0659 z" />
        <path
           id="path7439"
           style="font-style:normal;font-variant:normal;font-weight:500;font-stretch:normal;font-size:2.63803px;font-family:Quicksand;-inkscape-font-specification:'Quicksand Medium';text-align:start;text-anchor:start;fill:#ffffff;fill-opacity:1;stroke-width:0.0661456"
           d="m 76.191198,220.9093 q -0.211042,0 -0.369324,-0.0897 -0.158282,-0.0897 -0.245337,-0.24534 -0.08706,-0.15828 -0.08706,-0.36405 0,-0.22951 0.08969,-0.39043 0.09233,-0.16355 0.237423,-0.24797 0.145092,-0.0871 0.30865,-0.0871 0.123987,0 0.234784,0.0448 0.113435,0.0448 0.20049,0.1319 0.08969,0.0844 0.142454,0.20577 0.05276,0.11871 0.0554,0.26644 -0.0026,0.0422 -0.0343,0.0712 -0.03166,0.029 -0.07386,0.029 h -1.042021 l -0.04748,-0.18202 h 1.015642 l -0.04221,0.0369 v -0.058 q -0.0079,-0.10816 -0.07123,-0.18467 -0.06067,-0.0791 -0.150367,-0.12135 -0.08969,-0.0422 -0.1873,-0.0422 -0.07914,0 -0.158282,0.029 -0.0765,0.0264 -0.139816,0.0897 -0.06068,0.0607 -0.09761,0.15828 -0.03693,0.0976 -0.03693,0.23478 0,0.15301 0.06067,0.26908 0.06331,0.11608 0.17411,0.18466 0.110798,0.066 0.255889,0.066 0.09497,0 0.163558,-0.0238 0.06859,-0.0237 0.116073,-0.058 0.05012,-0.0369 0.08442,-0.0739 0.0343,-0.0237 0.06859,-0.0237 0.03693,0 0.06331,0.0264 0.02638,0.0264 0.02638,0.0633 0,0.0448 -0.04221,0.0791 -0.0765,0.0818 -0.203129,0.14509 -0.123987,0.0607 -0.269079,0.0607 z" />
        <path
           id="path7441"
           style="font-style:normal;font-variant:normal;font-weight:500;font-stretch:normal;font-size:2.63803px;font-family:Quicksand;-inkscape-font-specification:'Quicksand Medium';text-align:start;text-anchor:start;fill:#ffffff;fill-opacity:1;stroke-width:0.0661456"
           d="m 77.167267,220.88292 q -0.04485,0 -0.0765,-0.0317 -0.02902,-0.0316 -0.02902,-0.0765 v -1.15018 q 0,-0.0448 0.02902,-0.0739 0.03166,-0.0317 0.0765,-0.0317 0.04748,0 0.0765,0.0317 0.02902,0.029 0.02902,0.0739 v 0.34822 l -0.03166,-0.0554 q 0.01583,-0.0818 0.0554,-0.15828 0.04221,-0.0791 0.105521,-0.13982 0.06331,-0.0633 0.145092,-0.0976 0.08178,-0.0369 0.179386,-0.0369 0.05804,0 0.105521,0.029 0.05012,0.0264 0.05012,0.0765 0,0.0554 -0.02902,0.0818 -0.02902,0.0264 -0.06595,0.0264 -0.0343,0 -0.06595,-0.0132 -0.03166,-0.0158 -0.07914,-0.0158 -0.06595,0 -0.131901,0.0369 -0.06331,0.0343 -0.118712,0.10024 -0.05276,0.0659 -0.08705,0.15037 -0.03166,0.0818 -0.03166,0.17675 v 0.64104 q 0,0.0449 -0.03166,0.0765 -0.02902,0.0317 -0.07386,0.0317 z" />
        <path
           id="path7443"
           style="font-style:normal;font-variant:normal;font-weight:500;font-stretch:normal;font-size:2.63803px;font-family:Quicksand;-inkscape-font-specification:'Quicksand Medium';text-align:start;text-anchor:start;fill:#ffffff;fill-opacity:1;stroke-width:0.0661456"
           d="m 79.913454,220.68507 q 0.04221,0 0.07123,0.029 0.02902,0.029 0.02902,0.0712 0,0.0422 -0.02902,0.0712 -0.02902,0.0264 -0.07123,0.0264 h -0.957605 q -0.04748,0 -0.07914,-0.0264 -0.02902,-0.029 -0.02902,-0.0765 0,-0.0422 0.03166,-0.0765 l 0.596195,-0.65159 q 0.129263,-0.13718 0.197852,-0.25589 0.06859,-0.12135 0.06859,-0.23478 0,-0.10816 -0.04748,-0.1873 -0.04485,-0.0791 -0.126625,-0.12135 -0.08178,-0.0448 -0.192576,-0.0448 -0.105521,0 -0.203129,0.0554 -0.09497,0.0554 -0.150367,0.17147 -0.01847,0.029 -0.04221,0.0422 -0.0211,0.0105 -0.04485,0.0105 -0.03693,0 -0.07123,-0.0264 -0.03429,-0.029 -0.03429,-0.0659 0,-0.029 0.01583,-0.0554 0.01847,-0.0264 0.04221,-0.0554 0.08178,-0.1319 0.218957,-0.20313 0.137177,-0.0712 0.282269,-0.0712 0.179386,0 0.306011,0.0686 0.129264,0.0686 0.195215,0.19257 0.06859,0.12135 0.06859,0.277 0,0.10024 -0.03693,0.20576 -0.03429,0.10289 -0.108159,0.21368 -0.07386,0.1108 -0.1873,0.23215 l -0.461656,0.51178 -0.02638,-0.0264 z" />
        <path
           id="path7445"
           style="font-style:normal;font-variant:normal;font-weight:500;font-stretch:normal;font-size:2.63803px;font-family:Quicksand;-inkscape-font-specification:'Quicksand Medium';text-align:start;text-anchor:start;fill:#ffffff;fill-opacity:1;stroke-width:0.0661456"
           d="m 80.910628,220.9093 q -0.218956,0 -0.366686,-0.12399 -0.145092,-0.12399 -0.221595,-0.3403 -0.07386,-0.21632 -0.07386,-0.4854 0,-0.27436 0.07386,-0.48804 0.0765,-0.21368 0.221595,-0.33766 0.14773,-0.12399 0.366686,-0.12399 0.218957,0 0.364048,0.12399 0.14773,0.12398 0.221595,0.33766 0.07387,0.21368 0.07387,0.48804 0,0.26908 -0.07387,0.4854 -0.07386,0.21631 -0.221595,0.3403 -0.145091,0.12399 -0.364048,0.12399 z m 0,-0.21368 q 0.139816,0 0.234785,-0.0897 0.09761,-0.0897 0.147729,-0.25325 0.05012,-0.1662 0.05012,-0.39307 0,-0.22951 -0.05012,-0.39307 -0.05012,-0.16619 -0.147729,-0.25325 -0.09497,-0.0897 -0.234785,-0.0897 -0.139816,0 -0.237423,0.0897 -0.09497,0.0871 -0.147729,0.25325 -0.05012,0.16356 -0.05012,0.39307 0,0.22687 0.05012,0.39307 0.05276,0.16355 0.147729,0.25325 0.09761,0.0897 0.237423,0.0897 z" />
        <path
           id="path7447"
           style="font-style:normal;font-variant:normal;font-weight:500;font-stretch:normal;font-size:2.63803px;font-family:Quicksand;-inkscape-font-specification:'Quicksand Medium';text-align:start;text-anchor:start;fill:#ffffff;fill-opacity:1;stroke-width:0.0661456"
           d="m 82.965654,220.68507 q 0.04221,0 0.07123,0.029 0.02902,0.029 0.02902,0.0712 0,0.0422 -0.02902,0.0712 -0.02902,0.0264 -0.07123,0.0264 h -0.957605 q -0.04748,0 -0.07914,-0.0264 -0.02902,-0.029 -0.02902,-0.0765 0,-0.0422 0.03166,-0.0765 l 0.596195,-0.65159 q 0.129264,-0.13718 0.197852,-0.25589 0.06859,-0.12135 0.06859,-0.23478 0,-0.10816 -0.04748,-0.1873 -0.04485,-0.0791 -0.126626,-0.12135 -0.08178,-0.0448 -0.192576,-0.0448 -0.105521,0 -0.203128,0.0554 -0.09497,0.0554 -0.150368,0.17147 -0.01847,0.029 -0.04221,0.0422 -0.0211,0.0105 -0.04485,0.0105 -0.03693,0 -0.07123,-0.0264 -0.03429,-0.029 -0.03429,-0.0659 0,-0.029 0.01583,-0.0554 0.01847,-0.0264 0.04221,-0.0554 0.08178,-0.1319 0.218956,-0.20313 0.137178,-0.0712 0.282269,-0.0712 0.179386,0 0.306012,0.0686 0.129263,0.0686 0.195214,0.19257 0.06859,0.12135 0.06859,0.277 0,0.10024 -0.03693,0.20576 -0.03429,0.10289 -0.108159,0.21368 -0.07386,0.1108 -0.1873,0.23215 l -0.461655,0.51178 -0.02638,-0.0264 z" />
        <path
           id="path7449"
           style="font-style:normal;font-variant:normal;font-weight:500;font-stretch:normal;font-size:2.63803px;font-family:Quicksand;-inkscape-font-specification:'Quicksand Medium';text-align:start;text-anchor:start;fill:#ffffff;fill-opacity:1;stroke-width:0.0661456"
           d="m 83.962828,220.9093 q -0.218956,0 -0.366686,-0.12399 -0.145092,-0.12399 -0.221594,-0.3403 -0.07386,-0.21632 -0.07386,-0.4854 0,-0.27436 0.07386,-0.48804 0.0765,-0.21368 0.221594,-0.33766 0.14773,-0.12399 0.366686,-0.12399 0.218957,0 0.364048,0.12399 0.14773,0.12398 0.221595,0.33766 0.07386,0.21368 0.07386,0.48804 0,0.26908 -0.07386,0.4854 -0.07387,0.21631 -0.221595,0.3403 -0.145091,0.12399 -0.364048,0.12399 z m 0,-0.21368 q 0.139816,0 0.234785,-0.0897 0.09761,-0.0897 0.14773,-0.25325 0.05012,-0.1662 0.05012,-0.39307 0,-0.22951 -0.05012,-0.39307 -0.05012,-0.16619 -0.14773,-0.25325 -0.09497,-0.0897 -0.234785,-0.0897 -0.139815,0 -0.237422,0.0897 -0.09497,0.0871 -0.14773,0.25325 -0.05012,0.16356 -0.05012,0.39307 0,0.22687 0.05012,0.39307 0.05276,0.16355 0.14773,0.25325 0.09761,0.0897 0.237422,0.0897 z" />
      </g>
    </g>
  </g>
</svg>
