<?xml version="1.0" encoding="UTF-8" standalone="no"?>
<svg
   xmlns:dc="http://purl.org/dc/elements/1.1/"
   xmlns:cc="http://creativecommons.org/ns#"
   xmlns:rdf="http://www.w3.org/1999/02/22-rdf-syntax-ns#"
   xmlns:svg="http://www.w3.org/2000/svg"
   xmlns="http://www.w3.org/2000/svg"
   xmlns:sodipodi="http://sodipodi.sourceforge.net/DTD/sodipodi-0.dtd"
   xmlns:inkscape="http://www.inkscape.org/namespaces/inkscape"
   inkscape:version="1.0.2 (e86c870879, 2021-01-15)"
   sodipodi:docname="twitter-darkbg.svg"
   xml:space="preserve"
   style="enable-background:new 0 0 400 400;"
   viewBox="0 0 400 400"
   y="0px"
   x="0px"
   id="White"
   version="1.1"><metadata
   id="metadata3286"><rdf:RDF><cc:Work
       rdf:about=""><dc:format>image/svg+xml</dc:format><dc:type
         rdf:resource="http://purl.org/dc/dcmitype/StillImage" /><dc:title></dc:title></cc:Work></rdf:RDF></metadata><defs
   id="defs3284" /><sodipodi:namedview
   inkscape:current-layer="White"
   inkscape:window-maximized="1"
   inkscape:window-y="27"
   inkscape:window-x="0"
   inkscape:cy="143.43391"
   inkscape:cx="-478.43047"
   inkscape:zoom="0.70710678"
   inkscape:pagecheckerboard="false"
   showgrid="false"
   id="namedview3282"
   inkscape:window-height="1136"
   inkscape:window-width="3840"
   inkscape:pageshadow="2"
   inkscape:pageopacity="0"
   guidetolerance="10"
   gridtolerance="10"
   objecttolerance="10"
   borderopacity="1"
   bordercolor="#666666"
   pagecolor="#ffffff"
   inkscape:document-rotation="0" />
<style
   id="style3277"
   type="text/css">
	.st0{fill:#FFFFFF;}
</style>
<path
   id="rect7685"
   style="opacity:0.79408793;fill:#ffffff;fill-opacity:0.64690179;stroke:none;stroke-width:0.377953;stroke-linecap:round;stroke-linejoin:round;stroke-dashoffset:0.55988;stop-color:#000000"
   d="M 248.09961 98.400391 C 219.79961 98.400391 196.80078 121.39922 196.80078 149.69922 C 196.80078 153.69922 197.29961 157.60039 198.09961 161.40039 C 155.49961 159.30039 117.70039 138.80078 92.400391 107.80078 C 88.000391 115.40078 85.5 124.19961 85.5 133.59961 C 85.5 151.39961 94.600781 167.10078 108.30078 176.30078 C 99.900781 176.00078 91.999609 173.70039 85.099609 169.90039 L 85.099609 170.59961 C 85.099609 195.39961 102.79922 216.20039 126.19922 220.90039 C 121.89922 222.10039 117.39922 222.69922 112.69922 222.69922 C 109.39922 222.69922 106.19961 222.40078 103.09961 221.80078 C 109.59961 242.20078 128.6 257.00039 151 257.40039 C 133.4 271.20039 111.30078 279.40039 87.300781 279.40039 C 83.200781 279.40039 79.099609 279.19922 75.099609 278.69922 C 97.699609 293.09922 124.69961 301.59961 153.59961 301.59961 C 247.89961 301.59961 299.5 223.39922 299.5 155.69922 C 299.5 153.49922 299.50039 151.29961 299.40039 149.09961 C 309.40039 141.89961 318.1 132.8 325 122.5 C 315.8 126.6 305.9 129.29961 295.5 130.59961 C 306.1 124.29961 314.19961 114.19922 318.09961 102.19922 C 308.19961 108.09922 297.2 112.29961 285.5 114.59961 C 276.1 104.59961 262.79961 98.400391 248.09961 98.400391 z " />
</svg>
